<?xml version="1.0" encoding="utf-8"?>
<!-- Generator: Adobe Illustrator 24.1.0, SVG Export Plug-In . SVG Version: 6.00 Build 0)  -->
<svg version="1.1" id="Layer_1" xmlns="http://www.w3.org/2000/svg" xmlns:xlink="http://www.w3.org/1999/xlink" x="0px" y="0px"
	 viewBox="0 0 243.2 244.1" style="enable-background:new 0 0 243.2 244.1;" xml:space="preserve">
<style type="text/css">
	.st0{fill:none;stroke:#1D4E78;stroke-width:10;stroke-linecap:round;stroke-linejoin:round;stroke-miterlimit:10;}
	.st1{fill:#1D4E78;}
</style>
<path class="st0" d="M106.5,197.7c10.2,1.8,20.9,1.7,31.6-0.5c44.6-9.5,73.1-53.3,63.6-97.9c-9.5-44.6-53.3-73.1-97.9-63.6
	s-73.1,53.3-63.6,97.9c4.1,19.4,14.8,35.8,29.1,47.3"/>
<circle class="st1" cx="160.7" cy="156.8" r="10.5"/>
<circle class="st1" cx="179" cy="131.6" r="4.5"/>
<path class="st0" d="M69.4,179.8C46.8,144.8,56.8,98.2,91.7,75.6"/>
<path class="st0" d="M91.6,75.6c21.6-14,50.4-7.8,64.4,13.8"/>
<path class="st0" d="M156.1,89.4c8.6,13.3,4.8,31.2-8.5,39.8"/>
<path class="st0" d="M148.4,128.6c-8.2,5.5-19.2,3.3-24.7-4.9"/>
<path class="st0" d="M124,124c-3.3-5.1-1.8-11.9,3.3-15.2"/>
<path class="st0" d="M90,143.2c-20.7,15.2-25.2,44.3-10,65.1"/>
<path class="st0" d="M90,143.2c12.8-9.4,30.8-6.6,40.2,6.2"/>
<path class="st0" d="M130.2,149.3c5.8,7.9,4.1,19-3.8,24.9"/>
<path class="st0" d="M126.4,174.2c-4.9,3.6-11.8,2.5-15.4-2.4"/>
</svg>
