<?xml version="1.0" encoding="utf-8"?>
<!-- Generator: Adobe Illustrator 24.1.0, SVG Export Plug-In . SVG Version: 6.00 Build 0)  -->
<svg version="1.1" id="Layer_1" xmlns="http://www.w3.org/2000/svg" xmlns:xlink="http://www.w3.org/1999/xlink" x="0px" y="0px"
	 viewBox="0 0 243.2 244.1" style="enable-background:new 0 0 243.2 244.1;" xml:space="preserve">
<style type="text/css">
	.st0{fill:none;stroke:#1D4E78;stroke-width:10;stroke-linecap:round;stroke-linejoin:round;stroke-miterlimit:10;}
	.st1{fill:#1D4E78;}
</style>
<path class="st0" d="M205.8,102.4c1.9,7,2.9,14.3,2.9,21.9c0,45.6-37,82.6-82.6,82.6c-15,0-29.1-4-41.3-11.1"/>
<path class="st0" d="M43.5,123.8c0-45.6,37-82.6,82.6-82.6"/>
<circle class="st1" cx="156.5" cy="168.3" r="10.5"/>
<circle class="st1" cx="63.5" cy="138.9" r="6.5"/>
<path class="st0" d="M174.2,69.5c3.9-1.2,7.8-2.1,11.9-2.7"/>
<path class="st0" d="M122.8,125.7c4.8-22.4,19.1-40.3,37.8-50.4"/>
<path class="st0" d="M186,46c-33.1,5.3-62.3,25.6-78.6,55.2"/>
<path class="st0" d="M122.7,125.6c-8.7,40.7-48.8,66.6-89.4,57.8"/>
<path class="st0" d="M185.3,90.1c-18.9,2.5-35.1,16.6-39.4,36.4"/>
<path class="st0" d="M97.7,128.1c-5.4,25.1-30.1,41.1-55.3,35.7"/>
</svg>
