<?xml version="1.0" encoding="utf-8"?>
<!-- Generator: Adobe Illustrator 24.1.0, SVG Export Plug-In . SVG Version: 6.00 Build 0)  -->
<svg version="1.1" id="Layer_1" xmlns="http://www.w3.org/2000/svg" xmlns:xlink="http://www.w3.org/1999/xlink" x="0px" y="0px"
	 viewBox="0 0 243.2 244.1" style="enable-background:new 0 0 243.2 244.1;" xml:space="preserve">
<style type="text/css">
	.st0{fill:none;stroke:#1D4E78;stroke-width:10;stroke-linecap:round;stroke-linejoin:round;stroke-miterlimit:10;}
	.st1{fill:none;stroke:#1D4E78;stroke-width:13;stroke-linecap:round;stroke-linejoin:round;stroke-miterlimit:10;}
	.st2{fill:#1D4E78;}
</style>
<path class="st0" d="M43.7,106.4c-1.1,5.4-1.7,10.9-1.7,16.6c0,45.6,37,82.6,82.6,82.6c26.9,0,50.8-12.9,65.9-32.8"/>
<path class="st0" d="M207.2,123c0-45.6-37-82.6-82.6-82.6c-27.3,0-51.4,13.2-66.5,33.6"/>
<path class="st1" d="M16.9,114.4c8.8-15.3,25.3-25.5,44.2-25.5s35.4,10.3,44.2,25.5"/>
<path class="st1" d="M119.2,140.7c9.1,14.2,24.9,23.6,43,23.6s34-9.4,43-23.6"/>
<circle class="st2" cx="71.6" cy="123.6" r="10.5"/>
<circle class="st2" cx="215.8" cy="164.3" r="10.5"/>
<circle class="st2" cx="112.5" cy="127.5" r="5.7"/>
</svg>
