<?xml version="1.0" encoding="utf-8"?>
<!-- Generator: Adobe Illustrator 24.1.0, SVG Export Plug-In . SVG Version: 6.00 Build 0)  -->
<svg version="1.1" id="Layer_1" xmlns="http://www.w3.org/2000/svg" xmlns:xlink="http://www.w3.org/1999/xlink" x="0px" y="0px"
	 viewBox="0 0 243.2 244.1" style="enable-background:new 0 0 243.2 244.1;" xml:space="preserve">
<style type="text/css">
	.st0{fill:none;stroke:#1D4E78;stroke-width:10;stroke-linecap:round;stroke-linejoin:round;stroke-miterlimit:10;}
</style>
<path class="st0" d="M64.7,64C79.5,50,99.5,41.3,121.6,41.3c45.7,0,82.7,37,82.7,82.7s-37,82.7-82.7,82.7v-24.6
	c0,0,54.6-6.2,54.6-54.6S138,68.7,117.4,68.7s-54.1,14-54.1,54.1c0,35,21.5,40.1,21.5,40.1c1.3-14.5,21.3-36.5,47-34.9
	c32.8,2,35.9-34.2,35.9-34.2s-41.2-21.6-54.1,3.3c-7.1,18.6-24.3,10.2-30.8,30.6"/>
<path class="st0" d="M44.3,153.6c-3.5-9.2-5.4-19.2-5.4-29.6c0-17.1,5.2-33,14.1-46.2"/>
<path class="st0" d="M64.7,184c-5.4-5.2-10.2-11.1-14.1-17.5"/>
<path class="st0" d="M118.2,90.3c0,0-11.1-4.4-24.5,4.9"/>
<path class="st0" d="M76.1,193.1c0,0,8.8,9,22.7,9"/>
<path class="st0" d="M156.8,89.2c0,0-20.9,3.8-23.1,18"/>
</svg>
