<?xml version="1.0" encoding="utf-8"?>
<!-- Generator: Adobe Illustrator 24.1.0, SVG Export Plug-In . SVG Version: 6.00 Build 0)  -->
<svg version="1.1" id="Layer_1" xmlns="http://www.w3.org/2000/svg" xmlns:xlink="http://www.w3.org/1999/xlink" x="0px" y="0px"
	 viewBox="0 0 243.2 244.1" style="enable-background:new 0 0 243.2 244.1;" xml:space="preserve">
<style type="text/css">
	.st0{fill:none;stroke:#1D4E78;stroke-width:10;stroke-linecap:round;stroke-linejoin:round;stroke-miterlimit:10;}
	.st1{fill:#1D4E78;}
</style>
<circle class="st0" cx="121.4" cy="123.4" r="82.6"/>
<circle class="st0" cx="121.4" cy="123.4" r="46.7"/>
<polygon class="st0" points="121.4,123.4 121.4,123.5 121.4,123.4 "/>
<line class="st0" x1="121.4" y1="95.4" x2="121.4" y2="16"/>
<line class="st0" x1="121.4" y1="123.5" x2="121.4" y2="123.4"/>
<line class="st0" x1="121.4" y1="230.9" x2="121.4" y2="151.5"/>
<line class="st0" x1="197.4" y1="47.5" x2="141.2" y2="103.6"/>
<line class="st0" x1="121.4" y1="123.5" x2="121.4" y2="123.4"/>
<line class="st0" x1="101.5" y1="143.3" x2="45.4" y2="199.4"/>
<line class="st0" x1="228.8" y1="123.4" x2="149.4" y2="123.4"/>
<line class="st0" x1="93.3" y1="123.4" x2="13.9" y2="123.4"/>
<line class="st0" x1="121.4" y1="123.4" x2="121.4" y2="123.4"/>
<line class="st0" x1="101.5" y1="103.6" x2="45.4" y2="47.5"/>
<line class="st0" x1="197.4" y1="199.4" x2="141.2" y2="143.3"/>
<line class="st0" x1="121.4" y1="123.5" x2="121.4" y2="123.4"/>
<circle class="st1" cx="121.4" cy="123.4" r="14.7"/>
</svg>
