<?xml version="1.0" encoding="utf-8"?>
<!-- Generator: Adobe Illustrator 24.1.0, SVG Export Plug-In . SVG Version: 6.00 Build 0)  -->
<svg version="1.1" id="Layer_1" xmlns="http://www.w3.org/2000/svg" xmlns:xlink="http://www.w3.org/1999/xlink" x="0px" y="0px"
	 viewBox="0 0 406 306" style="enable-background:new 0 0 406 306;" xml:space="preserve">
<style type="text/css">
	.st0{opacity:0.3;fill:#E6E6E6;enable-background:new    ;}
	.st1{fill:#2165A4;}
	.st2{opacity:0.44;fill:#FFFFFF;enable-background:new    ;}
	.st3{fill:#0035A0;}
	.st4{fill:#E6E6E6;}
	.st5{opacity:8.000000e-02;enable-background:new    ;}
	.st6{fill:#F4A28C;}
	.st7{opacity:0.31;fill:#CE8172;enable-background:new    ;}
	.st8{fill:#24285B;}
	.st9{fill:#E0535E;}
	.st10{fill:#B3B3B3;}
</style>
<path class="st0" d="M123.9,84.6C97,95,77.1,121.5,73.2,153.5c-3.3,27,4.6,56.8,51.2,65.3c90.7,16.5,175.6,21.2,197.3-23.3
	s15-121-31-126C254,65.6,176.4,64.2,123.9,84.6z"/>
<path class="st1" d="M164.1,102c0,0-36.1,10.1-25.8,41.1l21.3-1.7L164.1,102z"/>
<path class="st2" d="M164.1,102c0,0-36.1,10.1-25.8,41.1l21.3-1.7L164.1,102z"/>
<path class="st3" d="M199.1,93.9l-16,2.8c0,0-57.9,6.3-32.7,53.2s87.3,20.8,87.3,20.8S291.3,87.8,199.1,93.9z"/>
<path class="st4" d="M111.6,143.2h183c6.2,0,11.2,5,11.2,11.2v94.8c0,6.2-5,11.2-11.2,11.2h-183c-6.2,0-11.2-5-11.2-11.2v-94.8
	C100.4,148.2,105.4,143.2,111.6,143.2z"/>
<path class="st5" d="M266.4,152.5c0,0-6.4,8.8-12.9,6.2s-17-30.3-17.6-48.8c2.6-0.6,5.3-0.8,8-0.8
	C247.1,109.4,266.4,152.5,266.4,152.5z"/>
<path class="st6" d="M241,92.2c-0.2-2.3-0.8-4.6-1.8-6.8c-0.5-1-1.2-1.9-2.1-2.6c-3.1-2-8.1,0-9.6,3.2c-0.7,1.5-0.8,3.3-0.3,4.9
	c0.8,2.4,2,4.6,3.6,6.5c1,1.5,2,2.9,3.2,4.2c0.1,0.1,0.2,0.2,0.3,0.2s0.2-0.1,0.3-0.1l6.8-5.4C241.2,94.9,241.1,93.6,241,92.2z"/>
<path class="st6" d="M237.8,91.2c0,0,46.1,48.6,33.7,61c-20.2,20.1-40.9-54.7-40.9-54.7L237.8,91.2z"/>
<path class="st6" d="M138.4,143.2c0,0,12-8.5,16.9-2.2S149.3,156.6,138.4,143.2z"/>
<polygon class="st6" points="189.2,67.2 186.2,96.8 204.5,105.9 198.2,75.5 "/>
<path class="st7" d="M199.4,80.2c-2.1-0.4-4-1.4-5.5-2.9c0,0,0.6,5.4,6.8,10.4L199.4,80.2z"/>
<path class="st6" d="M202.3,64c0,0,2.5,8.7,2.2,14.9c-0.1,2.5-2.3,4.4-4.8,4.3l0,0c-3.1-0.2-7.3-1.4-9.2-5.9l-4.2-7.3
	c0,0-2.5-4.6,1.8-9.2S201,58.6,202.3,64z"/>
<path class="st6" d="M203.6,69.5l3.2,2.9c0.6,0.5,0.6,1.5,0.1,2.1c-0.1,0.2-0.3,0.3-0.5,0.4l-3.3,1.3L203.6,69.5z"/>
<path class="st8" d="M187.3,79.4l-4.1-11.6c0,0-7-0.6-5.2-5.3c1.7-4.6,4.7-1.9,4.4-7.1s3.8-6.5,7-3.9s1.5-1.3,5.1-2.1
	s4.8,0.7,5.1,3.5s5.4-0.6,7.1,2.8c1.7,3.4,2.1,6.9-7,8.2C190.5,65.2,197.6,72.3,187.3,79.4z"/>
<path class="st6" d="M194.3,73.5c0,0-0.8-3.4-3.3-2.6s-1.5,5.7,2.1,5.5L194.3,73.5z"/>
<polygon class="st9" points="267.9,80 214.3,82.2 211.5,72.2 258.1,45.7 "/>
<rect x="228.2" y="77.4" transform="matrix(0.8762 -0.4819 0.4819 0.8762 -13.4699 122.0688)" class="st9" width="5.4" height="19.7"/>
<path class="st6" d="M230.3,85c0.4-0.1,0.9,0.1,1.2,0.3c0.5,0.6,0.5,1.5,0.1,2.2s-1,1.2-1.4,1.9c0.8,0.8,1.1,1.9,0.9,3
	c-0.1,0.7-0.7,1.5-1.5,1.4c-0.4-0.1-0.7-0.3-0.9-0.6c-1.1-1.1-2.4-3.4-1.9-5.1C227.2,87,228.9,85.2,230.3,85z"/>
<g>
	<path class="st10" d="M146.8,188.3c0,1.5-0.3,2.8-1.1,3.9c-0.8,1.1-1.8,2-3.3,2.7c-1.4,0.7-3,0.9-5,0.9c-1.6,0-2.9-0.1-3.9-0.3
		c-1.1-0.2-2.1-0.6-3.4-1.1v-5.8c1.2,0.7,2.5,1.1,3.8,1.5s2.5,0.6,3.6,0.6c0.9,0,1.7-0.1,2.1-0.5s0.7-0.8,0.7-1.2
		c0-0.3-0.1-0.6-0.2-0.9c-0.1-0.3-0.5-0.5-0.9-0.8c-0.5-0.2-1.5-0.8-3.2-1.6c-1.6-0.7-2.7-1.4-3.5-2s-1.4-1.5-1.7-2.3
		s-0.6-1.9-0.6-3c0-2.1,0.8-3.8,2.4-5.1c1.6-1.2,3.7-1.8,6.5-1.8c2.5,0,5,0.6,7.6,1.7l-1.9,5c-2.3-1-4.2-1.6-5.8-1.6
		c-0.8,0-1.5,0.1-1.8,0.5c-0.3,0.3-0.6,0.7-0.6,1.1c0,0.5,0.2,0.9,0.7,1.2s1.8,1,3.9,2c2,0.9,3.5,1.9,4.3,2.9
		C146.5,185.3,146.8,186.7,146.8,188.3z"/>
	<path class="st10" d="M161,176.7c-1.6,0-2.7,0.7-3.6,1.9s-1.2,2.9-1.2,5.2c0,4.5,1.7,6.9,5.2,6.9c1,0,2-0.1,3-0.5s2-0.7,2.9-1v5.4
		c-2,0.9-4.2,1.4-6.8,1.4c-3.6,0-6.3-1-8.2-3.2c-1.9-2-2.8-5.1-2.8-9c0-2.5,0.5-4.6,1.4-6.4c0.9-1.8,2.3-3.3,3.9-4.3
		c1.7-1,3.8-1.5,6.1-1.5c2.6,0,5,0.6,7.3,1.7l-1.9,5.1c-0.9-0.5-1.8-0.8-2.6-1C163,176.8,162,176.7,161,176.7z"/>
	<path class="st10" d="M194.3,183.6c0,3.9-1,7-2.9,9.1c-1.9,2-4.8,3.2-8.6,3.2c-3.7,0-6.5-1-8.6-3.2c-2-2.1-2.9-5.1-2.9-9.1
		c0-3.9,1-7,2.9-9c2-2,4.8-3.2,8.6-3.2c3.7,0,6.7,1,8.6,3C193.3,176.5,194.3,179.6,194.3,183.6z M177.9,183.6c0,4.6,1.6,6.9,4.7,6.9
		c1.6,0,2.8-0.6,3.6-1.7c0.8-1.1,1.1-2.8,1.1-5.2s-0.5-4.2-1.2-5.3c-0.8-1.1-2-1.7-3.6-1.7C179.5,176.7,177.9,178.9,177.9,183.6z"/>
	<path class="st10" d="M205,186.8v8.7h-6.4v-23.7h7.8c6.4,0,9.7,2.4,9.7,7c0,2.7-1.4,4.8-4.1,6.4l6.9,10.4h-7.2l-5.1-8.7L205,186.8
		L205,186.8z M205,182.1h1.2c2.3,0,3.4-1,3.4-2.9c0-1.6-1.1-2.5-3.3-2.5h-1.2L205,182.1L205,182.1z"/>
	<path class="st10" d="M221,195.5v-23.7h6.4v23.7H221z"/>
	<path class="st10" d="M255.2,195.5h-8.5l-8.7-16.7h-0.1c0.2,2.6,0.3,4.6,0.3,6v10.7h-5.6v-23.7h8.3l8.7,16.5h0.1
		c-0.1-2.4-0.2-4.3-0.2-5.8v-10.7h5.8v23.7H255.2z"/>
	<path class="st10" d="M269.8,181.6h10.3v12.7c-2.8,0.9-5.9,1.5-9.1,1.5c-3.6,0-6.5-1-8.5-3.2c-1.9-2.1-3-5.2-3-9s1.1-6.8,3.3-8.9
		c2.1-2.1,5.3-3.2,9.1-3.2c1.5,0,2.9,0.1,4.3,0.5c1.4,0.3,2.5,0.7,3.5,1.1l-2,5.1c-1.7-0.8-3.6-1.2-5.6-1.2c-1.9,0-3.3,0.6-4.4,1.8
		c-1,1.2-1.6,2.9-1.6,5.2s0.5,3.9,1.4,5.1c0.9,1.1,2.3,1.7,3.9,1.7c0.9,0,1.8-0.1,2.6-0.2v-3.7h-4.3v-5.2h0.1V181.6z"/>
	<path class="st10" d="M158.4,228.2c0,1.5-0.3,2.8-1.1,3.9c-0.8,1.1-1.8,2-3.3,2.7c-1.4,0.7-3,0.9-5,0.9c-1.6,0-2.9-0.1-3.9-0.3
		c-1.1-0.2-2.1-0.6-3.4-1.1v-5.8c1.2,0.7,2.5,1.1,3.8,1.5c1.4,0.3,2.5,0.6,3.6,0.6c0.9,0,1.7-0.1,2.1-0.5c0.5-0.3,0.7-0.8,0.7-1.2
		c0-0.3-0.1-0.6-0.2-0.9s-0.5-0.5-0.9-0.8c-0.5-0.2-1.5-0.8-3.2-1.6c-1.6-0.7-2.7-1.4-3.5-2c-0.8-0.7-1.4-1.5-1.7-2.3
		s-0.6-1.9-0.6-3c0-2.1,0.8-3.8,2.4-5.1c1.6-1.2,3.7-1.8,6.5-1.8c2.5,0,5,0.6,7.6,1.7l-1.9,5c-2.3-1-4.2-1.6-5.8-1.6
		c-0.8,0-1.5,0.1-1.8,0.5c-0.3,0.3-0.6,0.7-0.6,1.1c0,0.5,0.2,0.9,0.7,1.2s1.8,1,3.9,2c2,0.9,3.5,1.9,4.3,2.9
		C158.1,225.2,158.4,226.6,158.4,228.2z"/>
	<path class="st10" d="M170.6,220.4l4.1-8.8h7l-7.8,14.4v9.2h-6.4v-9l-7.8-14.7h7L170.6,220.4z"/>
	<path class="st10" d="M199.7,228.2c0,1.5-0.3,2.8-1.1,3.9c-0.8,1.1-1.8,2-3.3,2.7c-1.4,0.7-3,0.9-5,0.9c-1.6,0-2.9-0.1-3.9-0.3
		c-1.1-0.2-2.1-0.6-3.4-1.1v-5.8c1.2,0.7,2.5,1.1,3.8,1.5c1.4,0.3,2.5,0.6,3.6,0.6c0.9,0,1.7-0.1,2.1-0.5c0.5-0.3,0.7-0.8,0.7-1.2
		c0-0.3-0.1-0.6-0.2-0.9s-0.5-0.5-0.9-0.8c-0.5-0.2-1.5-0.8-3.2-1.6c-1.6-0.7-2.7-1.4-3.5-2c-0.8-0.7-1.4-1.5-1.7-2.3
		s-0.6-1.9-0.6-3c0-2.1,0.8-3.8,2.4-5.1c1.6-1.2,3.7-1.8,6.5-1.8c2.5,0,5,0.6,7.6,1.7l-1.9,5c-2.3-1-4.2-1.6-5.8-1.6
		c-0.8,0-1.5,0.1-1.8,0.5c-0.3,0.3-0.6,0.7-0.6,1.1c0,0.5,0.2,0.9,0.7,1.2s1.8,1,3.9,2c2,0.9,3.5,1.9,4.3,2.9
		C199.3,225.2,199.7,226.6,199.7,228.2z"/>
	<path class="st10" d="M213.8,235.4h-6.4v-18.5h-5.8v-5.2h17.9v5.2h-5.8L213.8,235.4L213.8,235.4z"/>
	<path class="st10" d="M237,235.4h-14.1v-23.7H237v5.2h-7.7v3.7h7.1v5.2h-7.1v4.5h7.7V235.4z"/>
	<path class="st10" d="M251.6,235.4l-4.8-17.1h-0.1c0.2,2.9,0.3,5.2,0.3,6.8v10.3h-5.6v-23.7h8.6l5,16.8h0.1l4.8-16.8h8.6v23.7h-5.9
		V225c0-0.6,0-1.1,0-1.8s0.1-2.3,0.2-4.8h-0.1l-4.7,17H251.6L251.6,235.4z"/>
</g>
</svg>
