<?xml version="1.0" encoding="utf-8"?>
<!-- Generator: Adobe Illustrator 24.1.0, SVG Export Plug-In . SVG Version: 6.00 Build 0)  -->
<svg version="1.1" id="Layer_1" xmlns="http://www.w3.org/2000/svg" xmlns:xlink="http://www.w3.org/1999/xlink" x="0px" y="0px"
	 viewBox="0 0 406 306" style="enable-background:new 0 0 406 306;" xml:space="preserve">
<style type="text/css">
	.st0{opacity:0.3;fill:#7B8BAF;enable-background:new    ;}
	.st1{opacity:0.3;fill:#E6E6E6;enable-background:new    ;}
	.st2{fill:#FFD200;}
	.st3{fill:#2165A4;}
	.st4{fill:#24285B;}
	.st5{opacity:0.44;fill:#FFFFFF;enable-background:new    ;}
	.st6{fill:#0035A0;}
	.st7{fill:#E6E6E6;}
	.st8{opacity:8.000000e-02;enable-background:new    ;}
	.st9{fill:#F4A28C;}
	.st10{opacity:0.31;fill:#CE8172;enable-background:new    ;}
	.st11{fill:#E0535E;}
	.st12{fill:#B3B3B3;}
</style>
<path class="st0" d="M81.8,163.7C40.6,178.5,10.2,216,4.2,261.4c-5.1,38.4,7.1,80.5,78.4,92.7c138.8,23.4,268.8,30,302.1-33
	s0.2-145-51.2-165.6S162.2,134.8,81.8,163.7z"/>
<rect x="87.6" y="45.5" class="st1" width="230.9" height="167.7"/>
<circle class="st2" cx="99.8" cy="57.1" r="5.1"/>
<circle class="st3" cx="114" cy="57.1" r="5.1"/>
<circle class="st4" cx="127.6" cy="57.1" r="5.1"/>
<path class="st3" d="M163.2,117.9c0,0-37,10.4-26.4,42.1l21.8-1.7L163.2,117.9z"/>
<path class="st5" d="M163.2,117.9c0,0-37,10.4-26.4,42.1l21.8-1.7L163.2,117.9z"/>
<path class="st6" d="M199,109.5l-16.4,2.8c0,0-59.3,6.4-33.5,54.5s89.5,21.3,89.5,21.3S293.5,103.3,199,109.5z"/>
<path class="st7" d="M109.3,160.2h187.5c6.3,0,11.5,5.1,11.5,11.5v97.1c0,6.3-5.1,11.5-11.5,11.5H109.3c-6.3,0-11.5-5.1-11.5-11.5
	v-97.2C97.8,165.3,103,160.2,109.3,160.2z"/>
<path class="st8" d="M268,169.7c0,0-6.5,9.1-13.2,6.3c-6.7-2.6-17.5-31.1-18-50.1c2.6-0.7,5.5-0.8,8.2-0.8
	C248.2,125.5,268,169.7,268,169.7z"/>
<path class="st9" d="M241.9,107.8c-0.2-2.4-0.8-4.7-1.9-7c-0.5-1-1.2-2-2.2-2.6c-3.2-2.1-8.3,0-9.8,3.3c-0.8,1.5-0.8,3.4-0.3,5
	c0.8,2.5,2.1,4.7,3.7,6.7c1,1.5,2.1,2.9,3.3,4.3c0.1,0.1,0.2,0.2,0.3,0.2s0.2-0.1,0.3-0.1l7-5.6
	C242.2,110.6,242.1,109.3,241.9,107.8z"/>
<path class="st9" d="M238.7,106.8c0,0,47.2,49.9,34.6,62.5c-20.8,20.6-41.9-56-41.9-56L238.7,106.8z"/>
<path class="st9" d="M136.8,160.2c0,0,12.3-8.7,17.3-2.3S147.9,173.9,136.8,160.2z"/>
<polygon class="st9" points="188.8,82.3 185.8,112.6 204.5,121.9 198.1,90.8 "/>
<path class="st10" d="M199.3,95.6c-2.2-0.4-4.1-1.4-5.7-2.9c0,0,0.7,5.6,7,10.7L199.3,95.6z"/>
<path class="st9" d="M202.3,79c0,0,2.5,8.9,2.3,15.3c-0.1,2.5-2.4,4.5-4.9,4.4l0,0c-3.2-0.2-7.5-1.4-9.4-6l-4.3-7.5
	c0,0-2.5-4.7,1.9-9.4C192.1,70.9,200.9,73.4,202.3,79z"/>
<path class="st9" d="M203.6,84.6l3.3,2.9c0.7,0.5,0.7,1.5,0.1,2.2c-0.1,0.2-0.3,0.3-0.5,0.4l-3.4,1.3L203.6,84.6z"/>
<path class="st4" d="M187,94.7l-4.2-11.9c0,0-7.2-0.7-5.3-5.5c1.7-4.7,4.8-2,4.5-7.3s3.9-6.7,7.2-4c3.3,2.6,1.5-1.3,5.2-2.2
	c3.7-0.8,4.9,0.8,5.2,3.6c0.3,2.8,5.6-0.7,7.3,2.8c1.7,3.5,2.2,7.1-7.2,8.4C190.2,80.2,197.4,87.4,187,94.7z"/>
<path class="st9" d="M194.1,88.7c0,0-0.8-3.5-3.4-2.6c-2.5,0.8-1.5,5.9,2.2,5.7L194.1,88.7z"/>
<polygon class="st11" points="269.5,95.4 214.6,97.6 211.7,87.4 259.5,60.2 "/>
<rect x="228.8" y="92.7" transform="matrix(0.8762 -0.4819 0.4819 0.8762 -20.8604 124.3075)" class="st11" width="5.6" height="20.2"/>
<path class="st9" d="M231,100.5c0.4-0.1,0.9,0.1,1.2,0.3c0.5,0.7,0.5,1.5,0.1,2.3c-0.4,0.8-1,1.2-1.4,2c0.8,0.8,1.1,2,0.9,3.1
	c-0.1,0.8-0.8,1.5-1.5,1.4c-0.4-0.1-0.8-0.3-0.9-0.7c-1.1-1.1-2.5-3.5-2-5.2C227.8,102.6,229.5,100.7,231,100.5z"/>
<g>
	<path class="st12" d="M145.4,206.3c0,1.5-0.3,2.8-1.1,4s-1.9,2.1-3.4,2.7c-1.4,0.8-3.1,0.9-5.1,0.9c-1.6,0-2.9-0.1-4-0.3
		c-1.1-0.2-2.2-0.7-3.5-1.1v-5.9c1.2,0.8,2.5,1.1,3.9,1.5c1.3,0.4,2.5,0.7,3.7,0.7c0.9,0,1.7-0.1,2.2-0.5c0.5-0.4,0.8-0.8,0.8-1.2
		c0-0.3-0.1-0.7-0.2-0.9s-0.5-0.5-0.9-0.8c-0.5-0.2-1.5-0.8-3.3-1.6c-1.6-0.8-2.7-1.4-3.6-2.1c-0.8-0.7-1.4-1.5-1.7-2.4
		s-0.7-2-0.7-3.1c0-2.2,0.8-3.9,2.5-5.2c1.6-1.2,3.8-1.9,6.7-1.9c2.5,0,5.1,0.7,7.7,1.7l-2,5.1c-2.4-1-4.3-1.6-5.9-1.6
		c-0.8,0-1.5,0.1-1.9,0.5c-0.3,0.3-0.7,0.8-0.7,1.1c0,0.5,0.2,0.9,0.8,1.2s1.9,1,4,2.1c2.1,0.9,3.6,2,4.4,2.9
		C145.1,203.3,145.4,204.7,145.4,206.3z"/>
	<path class="st12" d="M159.9,194.4c-1.6,0-2.7,0.8-3.7,2c-0.9,1.2-1.2,2.9-1.2,5.3c0,4.6,1.7,7.1,5.3,7.1c1,0,2.1-0.1,3.1-0.5
		c1-0.4,2.1-0.8,2.9-1v5.6c-2.1,0.9-4.3,1.4-7,1.4c-3.7,0-6.4-1-8.4-3.3c-2-2.1-2.8-5.2-2.8-9.3c0-2.5,0.5-4.7,1.4-6.5
		c0.9-1.8,2.4-3.4,4-4.4c1.7-1,3.9-1.5,6.2-1.5c2.6,0,5.1,0.7,7.5,1.7l-2,5.2c-0.9-0.5-1.9-0.8-2.6-1
		C162,194.5,161,194.4,159.9,194.4z"/>
	<path class="st12" d="M194.1,201.5c0,4-1,7.2-2.9,9.3c-2,2.1-4.9,3.3-8.8,3.3c-3.8,0-6.7-1-8.8-3.3c-2.1-2.2-2.9-5.2-2.9-9.3
		c0-4,1-7.2,2.9-9.3c2.1-2.1,4.9-3.3,8.8-3.3c3.8,0,6.9,1,8.8,3.1C193.1,194.3,194.1,197.5,194.1,201.5z M177.2,201.5
		c0,4.7,1.6,7.1,4.8,7.1c1.6,0,2.8-0.7,3.7-1.7c0.8-1.1,1.1-2.8,1.1-5.3s-0.5-4.3-1.2-5.5c-0.8-1.1-2.1-1.7-3.7-1.7
		C178.9,194.4,177.2,196.7,177.2,201.5z"/>
	<path class="st12" d="M205.1,204.8v8.9h-6.5v-24.3h8c6.5,0,9.9,2.5,9.9,7.2c0,2.7-1.4,4.9-4.2,6.5l7.1,10.7H212l-5.2-8.9
		L205.1,204.8L205.1,204.8z M205.1,200h1.2c2.4,0,3.5-1,3.5-2.9c0-1.6-1.1-2.5-3.4-2.5h-1.2L205.1,200L205.1,200L205.1,200z"/>
	<path class="st12" d="M221.4,213.7v-24.3h6.5v24.3H221.4z"/>
	<path class="st12" d="M256.6,213.7h-8.7l-8.9-17.1h-0.1c0.2,2.6,0.3,4.7,0.3,6.1v11h-5.8v-24.3h8.5l8.9,16.9h0.1
		c-0.1-2.5-0.2-4.4-0.2-5.9v-11h5.9L256.6,213.7L256.6,213.7z"/>
	<path class="st12" d="M271.5,199.5H282v13c-2.8,0.9-6,1.5-9.3,1.5c-3.7,0-6.7-1-8.7-3.3c-2-2.2-3.1-5.3-3.1-9.3
		c0-3.9,1.1-7,3.4-9.2c2.2-2.2,5.5-3.3,9.3-3.3c1.5,0,2.9,0.1,4.4,0.5c1.4,0.3,2.5,0.8,3.6,1.1l-2.1,5.2c-1.7-0.8-3.7-1.2-5.8-1.2
		c-2,0-3.4,0.7-4.5,1.9c-1,1.2-1.6,2.9-1.6,5.3c0,2.4,0.5,4,1.4,5.2c0.9,1.1,2.4,1.7,4,1.7c0.9,0,1.9-0.1,2.6-0.2v-3.8h-4.4v-5.3
		L271.5,199.5L271.5,199.5L271.5,199.5z"/>
	<path class="st12" d="M157.3,247.2c0,1.5-0.3,2.8-1.1,4s-1.9,2.1-3.4,2.7c-1.4,0.8-3.1,0.9-5.1,0.9c-1.6,0-2.9-0.1-4-0.3
		c-1.1-0.2-2.2-0.7-3.5-1.1v-5.9c1.2,0.8,2.5,1.1,3.9,1.5c1.4,0.3,2.5,0.7,3.7,0.7c0.9,0,1.7-0.1,2.2-0.5c0.5-0.3,0.8-0.8,0.8-1.2
		c0-0.3-0.1-0.7-0.2-0.9c-0.1-0.3-0.5-0.5-0.9-0.8c-0.5-0.2-1.5-0.8-3.3-1.6c-1.6-0.8-2.7-1.4-3.6-2.1c-0.8-0.8-1.4-1.5-1.7-2.4
		s-0.7-2-0.7-3.1c0-2.2,0.8-3.9,2.5-5.2c1.6-1.2,3.8-1.9,6.7-1.9c2.5,0,5.1,0.7,7.7,1.7l-2,5.1c-2.4-1-4.3-1.6-5.9-1.6
		c-0.8,0-1.5,0.1-1.9,0.5c-0.3,0.3-0.7,0.8-0.7,1.1c0,0.5,0.2,0.9,0.8,1.2s1.9,1,4,2.1c2.1,0.9,3.6,2,4.4,2.9
		C157,244.2,157.3,245.6,157.3,247.2z"/>
	<path class="st12" d="M169.8,239.3l4.2-9.1h7.2l-8,14.7v9.4h-6.5v-9.3l-8-15.1h7.2L169.8,239.3z"/>
	<path class="st12" d="M199.6,247.2c0,1.5-0.3,2.8-1.1,4s-1.9,2.1-3.4,2.7c-1.4,0.8-3.1,0.9-5.1,0.9c-1.6,0-2.9-0.1-4-0.3
		c-1.1-0.2-2.2-0.7-3.5-1.1v-5.9c1.2,0.8,2.5,1.1,3.9,1.5c1.4,0.3,2.5,0.7,3.7,0.7c0.9,0,1.7-0.1,2.2-0.5c0.5-0.3,0.8-0.8,0.8-1.2
		c0-0.3-0.1-0.7-0.2-0.9c-0.1-0.3-0.5-0.5-0.9-0.8c-0.5-0.2-1.5-0.8-3.3-1.6c-1.6-0.8-2.7-1.4-3.6-2.1c-0.8-0.8-1.4-1.5-1.7-2.4
		s-0.7-2-0.7-3.1c0-2.2,0.8-3.9,2.5-5.2c1.6-1.2,3.8-1.9,6.7-1.9c2.5,0,5.1,0.7,7.7,1.7l-2,5.1c-2.4-1-4.3-1.6-5.9-1.6
		c-0.8,0-1.5,0.1-1.9,0.5c-0.3,0.3-0.7,0.8-0.7,1.1c0,0.5,0.2,0.9,0.8,1.2c0.5,0.3,1.9,1,4,2.1c2.1,0.9,3.6,2,4.4,2.9
		C199.2,244.2,199.6,245.6,199.6,247.2z"/>
	<path class="st12" d="M214.1,254.6h-6.5v-18.9h-5.9v-5.3h18.3v5.3H214L214.1,254.6L214.1,254.6z"/>
	<path class="st12" d="M237.9,254.6h-14.4v-24.3h14.4v5.3h-7.9v3.8h7.3v5.3h-7.3v4.6h7.9V254.6z"/>
	<path class="st12" d="M252.8,254.6l-4.9-17.6h-0.1c0.2,2.9,0.3,5.3,0.3,7v10.6h-5.8v-24.3h8.8l5.1,17.2h0.1l4.9-17.2h8.8v24.3h-6
		v-10.7c0-0.7,0-1.1,0-1.9c0-0.8,0.1-2.4,0.2-4.9H264l-4.8,17.5H252.8L252.8,254.6z"/>
</g>
</svg>
