<?xml version="1.0" encoding="UTF-8" standalone="no"?>
<!DOCTYPE svg PUBLIC "-//W3C//DTD SVG 1.1//EN" "http://www.w3.org/Graphics/SVG/1.1/DTD/svg11.dtd"
[
<!ATTLIST g
  xmlns:vectornator CDATA #FIXED "http://vectornator.io"
  vectornator:layerName CDATA #IMPLIED >
<!ATTLIST g
  xmlns:vectornator CDATA #FIXED "http://vectornator.io"
  vectornator:mask CDATA #IMPLIED >
<!ATTLIST text
  xmlns:vectornator CDATA #FIXED "http://vectornator.io"
  vectornator:width CDATA #IMPLIED >
<!ATTLIST text
  xmlns:vectornator CDATA #FIXED "http://vectornator.io"
  vectornator:text CDATA #IMPLIED >

<!ATTLIST path
  xmlns:vectornator CDATA #FIXED "http://vectornator.io"
  vectornator:blendMode CDATA #IMPLIED >
<!ATTLIST path
  xmlns:vectornator CDATA #FIXED "http://vectornator.io"
  vectornator:shadowColor CDATA #IMPLIED >
<!ATTLIST path
  xmlns:vectornator CDATA #FIXED "http://vectornator.io"
  vectornator:shadowOpacity CDATA #IMPLIED >
<!ATTLIST path
  xmlns:vectornator CDATA #FIXED "http://vectornator.io"
  vectornator:shadowRadius CDATA #IMPLIED >
<!ATTLIST path
  xmlns:vectornator CDATA #FIXED "http://vectornator.io"
  vectornator:shadowOffset CDATA #IMPLIED >
<!ATTLIST path
  xmlns:vectornator CDATA #FIXED "http://vectornator.io"
  vectornator:shadowAngle CDATA #IMPLIED >

<!ATTLIST image
  xmlns:vectornator CDATA #FIXED "http://vectornator.io"
  vectornator:blendMode CDATA #IMPLIED >
<!ATTLIST image
  xmlns:vectornator CDATA #FIXED "http://vectornator.io"
  vectornator:shadowColor CDATA #IMPLIED >
<!ATTLIST image
  xmlns:vectornator CDATA #FIXED "http://vectornator.io"
  vectornator:shadowOpacity CDATA #IMPLIED >
<!ATTLIST image
  xmlns:vectornator CDATA #FIXED "http://vectornator.io"
  vectornator:shadowRadius CDATA #IMPLIED >
<!ATTLIST image
  xmlns:vectornator CDATA #FIXED "http://vectornator.io"
  vectornator:shadowOffset CDATA #IMPLIED >
<!ATTLIST image
  xmlns:vectornator CDATA #FIXED "http://vectornator.io"
  vectornator:shadowAngle CDATA #IMPLIED >

<!ATTLIST g
  xmlns:vectornator CDATA #FIXED "http://vectornator.io"
  vectornator:blendMode CDATA #IMPLIED >
<!ATTLIST g
  xmlns:vectornator CDATA #FIXED "http://vectornator.io"
  vectornator:shadowColor CDATA #IMPLIED >
<!ATTLIST g
  xmlns:vectornator CDATA #FIXED "http://vectornator.io"
  vectornator:shadowOpacity CDATA #IMPLIED >
<!ATTLIST g
  xmlns:vectornator CDATA #FIXED "http://vectornator.io"
  vectornator:shadowRadius CDATA #IMPLIED >
<!ATTLIST g
  xmlns:vectornator CDATA #FIXED "http://vectornator.io"
  vectornator:shadowOffset CDATA #IMPLIED >
<!ATTLIST g
  xmlns:vectornator CDATA #FIXED "http://vectornator.io"
  vectornator:shadowAngle CDATA #IMPLIED >

<!ENTITY % SVG.filter.extra.content  "| feDropShadow" >
<!ELEMENT feDropShadow EMPTY>
<!ATTLIST feDropShadow
  xmlns:svg CDATA #FIXED "http://www.w3.org/Graphics/SVG/1.1/DTD/svg11.dtd"
  dx CDATA #IMPLIED>
<!ATTLIST feDropShadow
  xmlns:svg CDATA #FIXED "http://www.w3.org/Graphics/SVG/1.1/DTD/svg11.dtd"
  dy CDATA #IMPLIED>
<!ATTLIST feDropShadow
  xmlns:svg CDATA #FIXED "http://www.w3.org/Graphics/SVG/1.1/DTD/svg11.dtd"
  stdDeviation CDATA #IMPLIED>
<!ATTLIST feDropShadow
  xmlns:svg CDATA #FIXED "http://www.w3.org/Graphics/SVG/1.1/DTD/svg11.dtd"
  flood-opacity CDATA #IMPLIED>
<!ATTLIST feDropShadow
  xmlns:svg CDATA #FIXED "http://www.w3.org/Graphics/SVG/1.1/DTD/svg11.dtd"
  in CDATA #IMPLIED>
<!ATTLIST feDropShadow
  xmlns:svg CDATA #FIXED "http://www.w3.org/Graphics/SVG/1.1/DTD/svg11.dtd"
  result CDATA #IMPLIED>
<!ATTLIST feDropShadow
  xmlns:svg CDATA #FIXED "http://www.w3.org/Graphics/SVG/1.1/DTD/svg11.dtd"
  flood-color CDATA #IMPLIED>
]
>
<!-- Created with Vectornator (http://vectornator.io/) -->
<svg height="100%" stroke-miterlimit="10" style="fill-rule:nonzero;clip-rule:evenodd;stroke-linecap:round;stroke-linejoin:round;" version="1.1" viewBox="0 0 220.1 86" width="100%" xml:space="preserve" xmlns="http://www.w3.org/2000/svg" xmlns:vectornator="http://vectornator.io" xmlns:xlink="http://www.w3.org/1999/xlink">
<defs>
<clipPath id="TextBounds">
<rect height="21.1659" width="132.914" x="95.2163" y="16.7813"/>
</clipPath>
<clipPath id="TextBounds_2">
<rect height="21.8728" width="139.753" x="97.2163" y="33.6084"/>
</clipPath>
<clipPath id="TextBounds_3">
<rect height="33.2825" width="88.3019" x="93.6342" y="-79.3184"/>
</clipPath>
<clipPath id="TextBounds_4">
<rect height="18.4744" width="84.3344" x="96.1767" y="-40.3039"/>
</clipPath>
</defs>
<g id="Layer-1" vectornator:layerName="Layer 1">
<g fill="#0035a0" opacity="1" stroke="none">
<path clip-path="url(#TextBounds)" d="M97.6763 28.0373C97.6763 30.9493 99.9323 31.9733 102.492 31.9733C105.052 31.9733 107.308 31.0453 107.308 28.1973L107.308 25.8613L103.596 25.8613C102.428 25.8613 101.996 25.6533 101.996 25.6533C101.996 26.6293 102.284 27.4453 103.324 27.4453L105.164 27.4453L105.164 27.9573C105.164 29.9893 104.06 30.3093 102.492 30.3093C100.924 30.3093 99.8203 29.7013 99.8203 27.7973L99.8203 24.3093C99.8203 22.4053 100.924 21.8133 102.492 21.8133C104.108 21.8133 106.06 22.2453 106.46 23.7333C106.812 23.1893 106.956 22.7253 106.956 22.3253C106.956 20.7413 104.636 20.1493 102.492 20.1493C99.9323 20.1493 97.6763 21.1733 97.6763 24.0853L97.6763 28.0373Z" fill-rule="evenodd"/>
<path clip-path="url(#TextBounds)" d="M111.148 26.4053C111.148 25.4293 111.452 24.8693 112.54 24.8693C113.532 24.8693 113.9 25.3333 113.9 26.0053C113.9 26.6453 113.5 27.0133 112.348 27.0133C111.868 27.0133 111.308 26.9013 111.148 26.8693L111.148 26.4053ZM112.924 31.9733C114.764 31.9733 116.092 31.2053 116.092 30.0533C116.092 29.6533 115.932 29.2213 115.596 28.7413C115.58 29.7013 114.508 30.3733 112.924 30.3733C111.724 30.3733 111.148 29.8773 111.148 28.9173L111.148 28.3413C111.628 28.5333 112.14 28.6293 112.652 28.6293C115.18 28.6293 115.98 27.3653 115.98 26.0053C115.98 24.4053 114.892 23.3493 112.604 23.3493C110.316 23.3493 109.068 24.4053 109.068 26.1653L109.068 29.1573C109.068 30.9173 110.492 31.9733 112.924 31.9733Z" fill-rule="evenodd"/>
<path clip-path="url(#TextBounds)" d="M122.828 30.8533C122.828 31.8613 124.908 31.8933 124.908 31.8933L124.908 25.9893C124.908 23.9093 123.164 23.3493 121.516 23.3493C120.652 23.3493 119.916 23.6853 119.132 23.6853C118.316 23.6853 117.692 23.3493 117.692 23.3493L117.692 30.8533C117.692 31.8933 119.772 31.8933 119.772 31.8933L119.772 25.1253C119.772 25.1253 120.476 24.9013 121.292 24.9013C122.428 24.9013 122.828 25.3813 122.828 26.2293L122.828 30.8533Z" fill-rule="evenodd"/>
<path clip-path="url(#TextBounds)" d="M128.748 26.4053C128.748 25.4293 129.052 24.8693 130.14 24.8693C131.132 24.8693 131.5 25.3333 131.5 26.0053C131.5 26.6453 131.1 27.0133 129.948 27.0133C129.468 27.0133 128.908 26.9013 128.748 26.8693L128.748 26.4053ZM130.524 31.9733C132.364 31.9733 133.692 31.2053 133.692 30.0533C133.692 29.6533 133.532 29.2213 133.196 28.7413C133.18 29.7013 132.108 30.3733 130.524 30.3733C129.324 30.3733 128.748 29.8773 128.748 28.9173L128.748 28.3413C129.228 28.5333 129.74 28.6293 130.252 28.6293C132.78 28.6293 133.58 27.3653 133.58 26.0053C133.58 24.4053 132.492 23.3493 130.204 23.3493C127.916 23.3493 126.668 24.4053 126.668 26.1653L126.668 29.1573C126.668 30.9173 128.092 31.9733 130.524 31.9733Z" fill-rule="evenodd"/>
<path clip-path="url(#TextBounds)" d="M137.372 31.8933L137.372 25.1413C137.548 25.1093 138.028 24.9653 138.572 24.9653C139.5 24.9653 140.3 25.4133 140.3 26.4213C140.428 26.2293 141.036 25.6373 141.036 24.8533C141.036 23.7653 140.012 23.3493 138.876 23.3493C137.932 23.3493 137.228 23.6853 136.524 23.6853C136.172 23.6853 135.772 23.6053 135.292 23.3653L135.292 30.8533C135.292 31.8933 137.372 31.8933 137.372 31.8933Z" fill-rule="evenodd"/>
<path clip-path="url(#TextBounds)" d="M146.364 30.2293C146.364 30.2293 145.724 30.5173 144.876 30.5173C143.964 30.5173 143.436 30.1493 143.436 29.4293C143.436 28.0053 145.996 28.4693 146.364 27.6213L146.364 30.2293ZM141.372 29.4613C141.372 31.3653 142.988 31.9733 144.636 31.9733C145.548 31.9733 146.348 31.6853 147.148 31.6853C147.548 31.6853 147.964 31.7333 148.38 31.9413L148.38 26.0853C148.38 24.3413 147.132 23.3493 144.78 23.3493C143.468 23.3493 141.596 23.7653 141.596 25.1573C141.596 25.5893 141.74 26.0853 142.204 26.7093C142.204 25.3653 143.42 24.9013 144.764 24.9013C145.996 24.9013 146.316 25.4133 146.316 25.9893C145.66 27.2533 141.372 26.4693 141.372 29.4613Z" fill-rule="evenodd"/>
<path clip-path="url(#TextBounds)" d="M154.908 29.3173C154.908 30.1813 153.932 30.4213 153.26 30.4213C152.06 30.4213 150.636 30.1173 150.604 28.7573C150.06 29.3333 149.852 29.8133 149.852 30.2613C149.852 31.3653 151.244 31.9733 153.26 31.9733C155.724 31.9733 156.94 30.9813 156.94 29.3973C156.94 25.5893 151.772 27.4613 151.772 25.9093C151.772 25.2213 152.3 24.9333 153.42 24.9333C154.764 24.9333 155.9 25.4133 155.9 26.4053C156.332 25.8613 156.508 25.3813 156.508 24.9653C156.508 23.8933 155.196 23.3493 153.26 23.3493C150.988 23.3493 149.724 24.2293 149.724 26.0053C149.724 29.4773 154.908 27.5253 154.908 29.3173Z" fill-rule="evenodd"/>
<path clip-path="url(#TextBounds)" d="M158.38 30.8533C158.38 31.8933 160.46 31.8933 160.46 31.8933L160.46 24.4693C160.46 23.4453 158.508 23.4293 158.38 23.4293L158.38 30.8533ZM158.428 21.7973C158.428 22.0213 158.684 22.2613 159.02 22.2613L160.428 22.2613L160.428 20.9333C160.428 20.7093 160.092 20.4693 159.836 20.4693L158.428 20.4693L158.428 21.7973Z" fill-rule="evenodd"/>
<path clip-path="url(#TextBounds)" d="M167.02 30.7413C167.02 31.7653 168.748 31.7813 168.748 31.7813L170.716 31.7813C173.292 31.7813 175.052 30.9013 175.052 28.8053L175.052 28.4053C175.052 27.3653 174.476 26.3573 173.644 25.9893C174.364 25.6533 174.892 24.6453 174.892 23.6533L174.892 23.2533C174.892 21.0613 173.148 20.3413 170.716 20.3413L167.02 20.3413L167.02 30.7413ZM170.844 26.7893C172.284 26.7893 172.908 27.3973 172.908 28.5653C172.908 29.7493 172.252 30.1973 170.716 30.1973L169.164 30.1973L169.164 26.7893L170.844 26.7893ZM170.716 21.9253C172.092 21.9253 172.748 22.2293 172.748 23.4133C172.748 24.5813 172.252 25.2053 170.844 25.2053L169.164 25.2053L169.164 21.9253L170.716 21.9253Z" fill-rule="evenodd"/>
<path clip-path="url(#TextBounds)" d="M181.516 30.2293C181.516 30.2293 180.876 30.5173 180.028 30.5173C179.116 30.5173 178.588 30.1493 178.588 29.4293C178.588 28.0053 181.148 28.4693 181.516 27.6213L181.516 30.2293ZM176.524 29.4613C176.524 31.3653 178.14 31.9733 179.788 31.9733C180.7 31.9733 181.5 31.6853 182.3 31.6853C182.7 31.6853 183.116 31.7333 183.532 31.9413L183.532 26.0853C183.532 24.3413 182.284 23.3493 179.932 23.3493C178.62 23.3493 176.748 23.7653 176.748 25.1573C176.748 25.5893 176.892 26.0853 177.356 26.7093C177.356 25.3653 178.572 24.9013 179.916 24.9013C181.148 24.9013 181.468 25.4133 181.468 25.9893C180.812 27.2533 176.524 26.4693 176.524 29.4613Z" fill-rule="evenodd"/>
<path clip-path="url(#TextBounds)" d="M187.436 31.8933L187.436 25.1413C187.612 25.1093 188.092 24.9653 188.636 24.9653C189.564 24.9653 190.364 25.4133 190.364 26.4213C190.492 26.2293 191.1 25.6373 191.1 24.8533C191.1 23.7653 190.076 23.3493 188.94 23.3493C187.996 23.3493 187.292 23.6853 186.588 23.6853C186.236 23.6853 185.836 23.6053 185.356 23.3653L185.356 30.8533C185.356 31.8933 187.436 31.8933 187.436 31.8933Z" fill-rule="evenodd"/>
<path clip-path="url(#TextBounds)" d="M193.964 24.4693C193.964 23.4613 191.884 23.4293 191.884 23.4293L191.884 29.3333C191.884 31.4133 193.628 31.9733 195.276 31.9733C196.14 31.9733 196.876 31.6373 197.66 31.6373C198.476 31.6373 199.1 31.9733 199.1 31.9733L199.1 24.4693C199.1 23.4293 197.02 23.4293 197.02 23.4293L197.02 30.1973C197.02 30.1973 196.316 30.4213 195.5 30.4213C194.364 30.4213 193.964 29.9413 193.964 29.0933L193.964 24.4693Z" fill-rule="evenodd"/>
</g>
<g fill="#0035a0" opacity="1" stroke="none">
<path clip-path="url(#TextBounds_2)" d="M99.8363 47.7284C99.8363 48.7684 101.98 48.7684 101.98 48.7684L101.98 38.0484C101.98 37.0084 99.8363 37.0084 99.8363 37.0084L99.8363 47.7284Z" fill-rule="evenodd"/>
<path clip-path="url(#TextBounds_2)" d="M113.196 47.6804C113.196 48.6884 115.276 48.7204 115.276 48.7204L115.276 42.8164C115.276 40.7364 113.532 40.1764 111.884 40.1764C111.02 40.1764 110.284 40.5124 109.5 40.5124C108.684 40.5124 108.06 40.1764 108.06 40.1764L108.06 47.6804C108.06 48.7204 110.14 48.7204 110.14 48.7204L110.14 41.9524C110.14 41.9524 110.844 41.7284 111.66 41.7284C112.796 41.7284 113.196 42.2084 113.196 43.0564L113.196 47.6804Z" fill-rule="evenodd"/>
<path clip-path="url(#TextBounds_2)" d="M126.172 39.8724C126.172 40.2724 126.3 40.8004 126.3 40.8004C126.3 40.8004 125.564 40.1764 124.236 40.1764C122.524 40.1764 121.036 41.2164 121.036 42.9444L121.036 46.0164C121.036 47.7924 122.348 48.8004 124.636 48.8004C125.308 48.8004 126.124 48.5284 126.972 48.5284C127.404 48.5284 127.836 48.5924 128.252 48.8004L128.252 37.6164C128.252 36.4004 126.316 36.4164 126.172 36.4164L126.172 39.8724ZM126.172 47.0884C126.172 47.0884 125.548 47.2804 124.828 47.2804C123.5 47.2804 123.116 46.7844 123.116 45.7764L123.116 43.1844C123.116 42.1444 123.676 41.6964 124.444 41.6964C125.308 41.6964 126.172 42.2404 126.172 43.0244L126.172 47.0884Z" fill-rule="evenodd"/>
<path clip-path="url(#TextBounds_2)" d="M141.724 42.9924C141.724 41.2324 140.492 40.1764 137.868 40.1764C135.244 40.1764 134.012 41.2324 134.012 42.9924L134.012 45.9844C134.012 47.7444 135.244 48.8004 137.868 48.8004C140.492 48.8004 141.724 47.7444 141.724 45.9844L141.724 42.9924ZM139.644 45.7444C139.644 46.7204 139.34 47.2804 137.868 47.2804C136.396 47.2804 136.092 46.7204 136.092 45.7444L136.092 43.2324C136.092 42.2564 136.396 41.6964 137.868 41.6964C139.34 41.6964 139.644 42.2564 139.644 43.2324L139.644 45.7444Z" fill-rule="evenodd"/>
<path clip-path="url(#TextBounds_2)" d="M152.62 47.6804C152.62 48.6884 154.7 48.7204 154.7 48.7204L154.7 42.8164C154.7 40.7364 152.956 40.1764 151.308 40.1764C150.444 40.1764 149.708 40.5124 148.924 40.5124C148.108 40.5124 147.484 40.1764 147.484 40.1764L147.484 47.6804C147.484 48.7204 149.564 48.7204 149.564 48.7204L149.564 41.9524C149.564 41.9524 150.268 41.7284 151.084 41.7284C152.22 41.7284 152.62 42.2084 152.62 43.0564L152.62 47.6804Z" fill-rule="evenodd"/>
<path clip-path="url(#TextBounds_2)" d="M162.54 43.2324C162.54 42.2564 162.844 41.6964 163.932 41.6964C164.924 41.6964 165.292 42.1604 165.292 42.8324C165.292 43.4724 164.892 43.8404 163.74 43.8404C163.26 43.8404 162.7 43.7284 162.54 43.6964L162.54 43.2324ZM164.316 48.8004C166.156 48.8004 167.484 48.0324 167.484 46.8804C167.484 46.4804 167.324 46.0484 166.988 45.5684C166.972 46.5284 165.9 47.2004 164.316 47.2004C163.116 47.2004 162.54 46.7044 162.54 45.7444L162.54 45.1684C163.02 45.3604 163.532 45.4564 164.044 45.4564C166.572 45.4564 167.372 44.1924 167.372 42.8324C167.372 41.2324 166.284 40.1764 163.996 40.1764C161.708 40.1764 160.46 41.2324 160.46 42.9924L160.46 45.9844C160.46 47.7444 161.884 48.8004 164.316 48.8004Z" fill-rule="evenodd"/>
<path clip-path="url(#TextBounds_2)" d="M177.788 46.1444C177.788 47.0084 176.812 47.2484 176.14 47.2484C174.94 47.2484 173.516 46.9444 173.484 45.5844C172.94 46.1604 172.732 46.6404 172.732 47.0884C172.732 48.1924 174.124 48.8004 176.14 48.8004C178.604 48.8004 179.82 47.8084 179.82 46.2244C179.82 42.4164 174.652 44.2884 174.652 42.7364C174.652 42.0484 175.18 41.7604 176.3 41.7604C177.644 41.7604 178.78 42.2404 178.78 43.2324C179.212 42.6884 179.388 42.2084 179.388 41.7924C179.388 40.7204 178.076 40.1764 176.14 40.1764C173.868 40.1764 172.604 41.0564 172.604 42.8324C172.604 46.3044 177.788 44.3524 177.788 46.1444Z" fill-rule="evenodd"/>
<path clip-path="url(#TextBounds_2)" d="M185.26 47.6804C185.26 48.7204 187.34 48.7204 187.34 48.7204L187.34 41.2964C187.34 40.2724 185.388 40.2564 185.26 40.2564L185.26 47.6804ZM185.308 38.6244C185.308 38.8484 185.564 39.0884 185.9 39.0884L187.308 39.0884L187.308 37.7604C187.308 37.5364 186.972 37.2964 186.716 37.2964L185.308 37.2964L185.308 38.6244Z" fill-rule="evenodd"/>
<path clip-path="url(#TextBounds_2)" d="M197.964 47.0564C197.964 47.0564 197.324 47.3444 196.476 47.3444C195.564 47.3444 195.036 46.9764 195.036 46.2564C195.036 44.8324 197.596 45.2964 197.964 44.4484L197.964 47.0564ZM192.972 46.2884C192.972 48.1924 194.588 48.8004 196.236 48.8004C197.148 48.8004 197.948 48.5124 198.748 48.5124C199.148 48.5124 199.564 48.5604 199.98 48.7684L199.98 42.9124C199.98 41.1684 198.732 40.1764 196.38 40.1764C195.068 40.1764 193.196 40.5924 193.196 41.9844C193.196 42.4164 193.34 42.9124 193.804 43.5364C193.804 42.1924 195.02 41.7284 196.364 41.7284C197.596 41.7284 197.916 42.2404 197.916 42.8164C197.26 44.0804 192.972 43.2964 192.972 46.2884Z" fill-rule="evenodd"/>
</g>
</g>
<clipPath id="ArtboardFrame">
<rect height="86" width="220.1" x="0" y="0"/>
</clipPath>
<g clip-path="url(#ArtboardFrame)" id="Untitled" vectornator:layerName="Untitled">
<g opacity="1">
<path d="M52 25.1C52.3 25 52.6 25 52.8 24.9C54.2 24.6 55.6 24.4 57.1 24.2C58.2 24.1 59.3 24 60.4 23.9C62 23.8 63.7 23.8 65.3 23.8C67.9 23.9 70.5 24.2 73 24.8C75.9 25.5 78.7 26.6 81.2 28.3C82.7 29.3 84.1 30.5 85.2 32C85.4 32.2 85.5 32.4 85.7 32.7L85.7 32.8C85.6 32.8 85.6 32.7 85.5 32.7C84.4 32 83.2 31.4 82 31C81.1 30.7 80.2 30.5 79.3 30.6C77.9 30.6 76.6 31 75.4 31.5L75.3 31.5L75.3 31.5C75.3 31.5 75.4 31.6 75.4 31.7C76.3 32.7 77.2 33.7 77.9 34.8C78.4 35.5 78.8 36.3 79.1 37.2C79.3 37.8 79.4 38.5 79.5 39.1C79.6 40 79.6 40.9 79.6 41.8C79.5 43.2 79.3 44.7 79 46C79 46 79 46.1 79 46.2C79 46.1 78.9 46.1 78.9 46C78.2 43.2 77 40.8 75.2 38.5C73.7 36.6 72 35 70.2 33.5C68 31.8 65.7 30.4 63.3 29.2C59.9 27.5 56.3 26.1 52.6 25.2C52.3 25.2 52.2 25.1 52 25.1L52 25.1Z" fill="#0035a0" fill-rule="evenodd" opacity="1" stroke="none"/>
<path d="M32.9 37.8C32.9 37.6 32.9 37.4 33 37.2C33.2 35.9 33.4 34.6 33.7 33.3C34.3 30.6 35.1 27.9 36 25.4C36.9 23 38 20.6 39.4 18.4C40.9 16 42.7 13.9 44.9 12.1C46.5 10.8 48.3 9.7 50.3 8.9C50.7 8.8 51 8.7 51.4 8.5L51.4 8.5C51.3 8.5 51.3 8.6 51.2 8.6C50.2 9.4 49.2 10.3 48.4 11.4C47.5 12.6 46.9 13.9 46.7 15.4C46.6 16.1 46.6 16.9 46.6 17.6C46.6 17.7 46.6 17.8 46.6 17.8L46.6 17.9C46.7 17.9 46.8 17.8 46.8 17.8C48 17.3 49.2 16.8 50.5 16.5C51.2 16.3 52 16.2 52.8 16.2C53.4 16.2 53.9 16.3 54.5 16.4C56.7 16.8 58.6 17.6 60.5 18.7C60.8 18.9 61.1 19.1 61.4 19.3C61.5 19.3 61.5 19.4 61.6 19.4C61.5 19.4 61.5 19.4 61.4 19.4C60.6 19.3 59.9 19.3 59.1 19.3C57 19.4 55.1 19.7 53.1 20.4C50.7 21.2 48.6 22.3 46.5 23.7C44.3 25.1 42.3 26.8 40.5 28.6C37.8 31.2 35.5 34 33.3 37C33.2 37.3 33.1 37.6 32.9 37.8L32.9 37.8Z" fill="#0035a0" fill-rule="evenodd" opacity="1" stroke="none"/>
<path d="M36.6 59.9C36.5 59.9 36.5 59.8 36.4 59.8C34.6 58.7 32.8 57.4 31.2 56.1C28.6 54 26.1 51.7 23.9 49.1C22.5 47.4 21.2 45.7 20.2 43.8C19 41.6 18.2 39.4 17.7 37C17.4 35.6 17.3 34.1 17.4 32.7C17.4 32.2 17.5 31.7 17.5 31.2C17.5 31.2 17.5 31.1 17.6 31.1C17.6 31.2 17.6 31.2 17.7 31.3C18 32.4 18.4 33.5 18.8 34.5C19.6 36.3 20.9 37.6 22.6 38.5C23.1 38.8 23.6 39 24.1 39.1C24.2 39.1 24.3 39.1 24.3 39.2C24.3 39.1 24.3 39.1 24.3 39C24.3 38.3 24.3 37.5 24.4 36.8C24.5 35.6 24.7 34.3 25.1 33.1C25.4 32.3 25.8 31.6 26.3 31C27.4 29.5 28.7 28.3 30.2 27.2C30.6 26.9 31.1 26.6 31.6 26.3C31.7 26.3 31.7 26.2 31.8 26.2C31.8 26.3 31.7 26.3 31.7 26.4C30.6 28.4 29.8 30.5 29.4 32.8C29.1 34.4 29 36.1 29 37.7C29.1 39.6 29.3 41.5 29.7 43.3C30.4 46.9 31.6 50.3 33.2 53.6C34.2 55.8 35.3 57.9 36.6 59.9C36.6 59.8 36.6 59.9 36.6 59.9L36.6 59.9Z" fill="#0035a0" fill-rule="evenodd" opacity="1" stroke="none"/>
<path d="M59.1 72C59.1 72 59.2 72 59.1 72C61.5 70.6 63.5 68.9 65.1 66.8C66.6 64.9 67.8 62.8 68.7 60.6C69.8 58.1 70.5 55.6 71 52.9C71.3 51.5 71.5 50.2 71.7 48.8C71.9 47.6 72 46.3 72.1 45.1C72.2 43.8 72.2 42.5 72.2 41.2C72.2 41 72.2 40.8 72.2 40.5C72.2 40.6 72.3 40.7 72.3 40.7C73.3 42.6 74.2 44.6 74.9 46.6C75.8 49.1 76.6 51.6 77.2 54.2C77.5 55.6 77.7 57 77.9 58.4C78.1 59.8 78.1 61.2 78.1 62.6C78 65.7 77.4 68.7 76.1 71.6C75.5 72.8 74.9 74 74 75C74 75 74 75 73.9 75.1C73.9 75 73.9 75 74 74.9C74.3 73.8 74.5 72.7 74.7 71.6C75 69.3 74.3 67.2 72.9 65.3C72.7 65.1 72.5 64.8 72.3 64.6C72.2 64.7 72.2 64.7 72.2 64.8C71.6 65.9 70.9 66.9 70.1 67.8C69.7 68.2 69.3 68.7 68.9 69.1C68.2 69.8 67.3 70.3 66.4 70.7C65 71.3 63.6 71.6 62.1 71.9C61.3 72 60.4 72.1 59.5 72.1C59.3 72 59.2 72 59.1 72L59.1 72Z" fill="#0035a0" fill-rule="evenodd" opacity="1" stroke="none"/>
<path d="M27 72.7C27.4 72.7 27.8 72.8 28.2 72.8C29.6 72.9 31 72.9 32.4 72.6C33.4 72.4 34.3 71.9 35.1 71.3C35.8 70.8 36.3 70.3 36.9 69.7C36.9 69.6 37 69.6 37.1 69.5C37 69.5 36.9 69.4 36.9 69.4C35.7 68.9 34.5 68.3 33.4 67.6C33 67.4 32.7 67.1 32.3 66.8C31.5 66.2 30.9 65.5 30.4 64.6C29.5 63.2 28.9 61.6 28.4 60C28.2 59.2 28 58.4 27.8 57.6C27.8 57.6 27.8 57.6 27.8 57.5C27.8 57.6 27.9 57.6 27.9 57.6C29.7 59.9 31.9 61.7 34.5 63C36.6 64.1 38.9 64.9 41.2 65.5C42.6 65.8 44.1 66.1 45.6 66.3C47 66.5 48.5 66.6 49.9 66.6C51.1 66.6 52.4 66.6 53.6 66.6C54.7 66.5 55.8 66.5 56.9 66.4C58.3 66.3 59.6 66.1 60.9 65.9C60.9 65.9 60.9 65.9 61 65.9C60.9 66 60.9 66 60.8 66.1C59.9 66.7 59 67.4 58.1 68C55.2 69.9 52.2 71.4 49 72.7C46.9 73.6 44.7 74.2 42.4 74.7C41.3 74.9 40.2 75.1 39.1 75.2C37.9 75.3 36.7 75.3 35.4 75.2C32.8 75 30.3 74.4 28 73.3C27.7 73.2 27.4 73 27.2 72.8C27.1 72.8 27.1 72.8 27 72.7L27 72.7Z" fill="#0035a0" fill-rule="evenodd" opacity="1" stroke="none"/>
<path d="M60.8 43.5C60.8 44.8 60.8 46.2 60.8 47.5C60.6 47.6 60.3 47.6 60.1 47.7C57.4 48.3 54.7 48.8 52 49.4C51.8 49.4 51.7 49.4 51.5 49.4C48.5 48.8 45.6 48.2 42.6 47.7C42.5 47.7 42.4 47.7 42.3 47.6C42.3 46.3 42.3 45 42.3 43.6C48.5 43.5 54.6 43.5 60.8 43.5Z" fill="#ed1c24" fill-rule="evenodd" opacity="1" stroke="none"/>
<path d="M67.7 42.7C56.9 42.8 46.2 42.8 35.4 42.9C35.4 42.3 35.4 41.7 35.4 41.1C46.3 41 57.1 40.9 68 40.8C68 40.9 68 41 68 41.1C68 43.7 68 46.3 68 48.9C68 51.1 68 53.3 68 55.5C68 55.6 68 55.7 68 55.8C67.9 55.8 67.8 55.8 67.6 55.8C67.6 55.7 67.6 55.7 67.6 55.6C67.6 54.8 67.6 54 67.6 53.1C67.6 49.7 67.6 46.4 67.5 43C67.7 42.9 67.7 42.8 67.7 42.7Z" fill="#ed1c24" fill-rule="evenodd" opacity="1" stroke="none"/>
<path d="M51.7 56.3C49 54 46.4 51.7 43.7 49.4L43.7 49.4C44.2 49.5 44.6 49.7 45.1 49.8C47.3 50.4 49.5 51 51.6 51.7C51.7 51.7 51.9 51.7 52 51.7C54.5 50.9 57.1 50.2 59.6 49.4C59.7 49.4 59.7 49.4 59.8 49.4C59.7 49.4 51.9 56.1 51.7 56.3Z" fill="#0035a0" fill-rule="evenodd" opacity="1" stroke="none"/>
<path d="M83.7 39.1C82.5 39.1 81.5 38.1 81.5 36.9C81.5 35.7 82.5 34.6 83.7 34.6C84.9 34.6 85.9 35.6 85.9 36.8C86 38.1 85 39.1 83.7 39.1Z" fill="#ed1c24" fill-rule="evenodd" opacity="1" stroke="none"/>
<path d="M56.8 11.8C56.8 13 55.8 14 54.5 14C53.3 14 52.3 13 52.3 11.8C52.3 10.6 53.3 9.6 54.5 9.6C55.8 9.6 56.8 10.6 56.8 11.8Z" fill="#ed1c24" fill-rule="evenodd" opacity="1" stroke="none"/>
<path d="M21.8 31.8C20.6 31.8 19.6 30.8 19.5 29.6C19.5 28.4 20.5 27.3 21.7 27.3C22.9 27.3 24 28.3 24 29.6C24.1 30.7 23 31.8 21.8 31.8Z" fill="#ed1c24" fill-rule="evenodd" opacity="1" stroke="none"/>
<path d="M29.5 68.2C29.5 69.4 28.5 70.4 27.3 70.4C26.1 70.4 25 69.4 25 68.2C25 67 26 66 27.2 66C28.5 65.9 29.5 66.9 29.5 68.2Z" fill="#ed1c24" fill-rule="evenodd" opacity="1" stroke="none"/>
<path d="M69.5 76.4C68.3 76.4 67.3 75.4 67.3 74.2C67.3 73 68.3 71.9 69.5 71.9C70.7 71.9 71.7 72.9 71.7 74.1C71.7 75.4 70.7 76.4 69.5 76.4Z" fill="#ed1c24" fill-rule="evenodd" opacity="1" stroke="none"/>
</g>
<g opacity="1">
<path d="M97.5 60.2C97.5 56.2 100.6 54.8 104.1 54.8C107 54.8 110.2 55.6 110.2 57.8C110.2 58.3 110 59 109.5 59.7C109 57.7 106.3 57.1 104.1 57.1C102 57.1 100.5 57.9 100.5 60.5L100.5 65.3C100.5 67.9 102 68.7 104.1 68.7C106.2 68.7 107.7 68.3 107.7 65.5L107.7 64.8L105.2 64.8C103.8 64.8 103.4 63.7 103.4 62.4C103.4 62.4 104 62.7 105.6 62.7L110.7 62.7L110.7 65.9C110.7 69.8 107.6 71 104.1 71C100.6 71 97.5 69.6 97.5 65.6C97.5 65.6 97.5 60.2 97.5 60.2Z" fill="#ed1c24" fill-rule="evenodd" opacity="1" stroke="none"/>
<path d="M123.5 67.1C123.5 69.5 121.8 70.9 118.2 70.9C114.6 70.9 112.9 69.5 112.9 67.1L112.9 63C112.9 60.6 114.6 59.2 118.2 59.2C121.8 59.2 123.5 60.6 123.5 63L123.5 67.1ZM120.7 63.3C120.7 62 120.3 61.2 118.3 61.2C116.3 61.2 115.9 62 115.9 63.3L115.9 66.7C115.9 68 116.3 68.8 118.3 68.8C120.3 68.8 120.7 68 120.7 66.7L120.7 63.3Z" fill="#ed1c24" fill-rule="evenodd" opacity="1" stroke="none"/>
<path d="M125.9 69.4L125.9 59.2C126.6 59.5 127.1 59.6 127.6 59.6C128.6 59.6 129.5 59.1 130.8 59.1C132.3 59.1 133.7 59.7 133.7 61.1C133.7 62.2 132.9 63 132.7 63.2C132.7 61.8 131.6 61.2 130.3 61.2C129.6 61.2 128.9 61.4 128.7 61.4L128.7 70.6C128.7 70.8 125.9 70.8 125.9 69.4Z" fill="#ed1c24" fill-rule="evenodd" opacity="1" stroke="none"/>
<path d="M144.9 67.1C144.9 69.5 143.2 70.9 139.6 70.9C136 70.9 134.3 69.5 134.3 67.1L134.3 63C134.3 60.6 136 59.2 139.6 59.2C143.2 59.2 144.9 60.6 144.9 63L144.9 67.1ZM142 63.3C142 62 141.6 61.2 139.6 61.2C137.6 61.2 137.2 62 137.2 63.3L137.2 66.7C137.2 68 137.6 68.8 139.6 68.8C141.6 68.8 142 68 142 66.7L142 63.3Z" fill="#ed1c24" fill-rule="evenodd" opacity="1" stroke="none"/>
<path d="M154.2 63.1C154.2 61.9 153.7 61.3 152.1 61.3C151 61.3 150 61.6 150 61.6L150 70.8C150 70.8 147.2 70.8 147.2 69.4L147.2 59.2C147.2 59.2 148 59.7 149.2 59.7C150.3 59.7 151.3 59.2 152.4 59.2C154.6 59.2 157 60 157 62.8L157 70.8C157 70.8 154.2 70.8 154.2 69.4C154.2 69.4 154.2 63.1 154.2 63.1Z" fill="#ed1c24" fill-rule="evenodd" opacity="1" stroke="none"/>
<path d="M159.7 57.3C160.3 57.3 162.5 57.3 162.5 59.2L162.5 60L166.9 60C166.9 60 166.9 62.1 165.3 62.1L162.5 62.1L162.5 66.5C162.5 68 162.9 68.8 164.6 68.8C165.9 68.8 167.2 68.3 167.2 66.5C167.8 67.2 168.1 67.8 168.1 68.4C168.1 69.7 166.8 70.9 164.2 70.9C161.3 70.9 159.7 69.5 159.7 67.1C159.7 67.1 159.7 57.3 159.7 57.3Z" fill="#ed1c24" fill-rule="evenodd" opacity="1" stroke="none"/>
<path d="M175.7 62.7C175.7 61.9 175.3 61.2 173.6 61.2C171.8 61.2 170.1 61.8 170.1 63.7C169.5 62.9 169.3 62.2 169.3 61.6C169.3 59.7 171.8 59.1 173.6 59.1C176.8 59.1 178.5 60.5 178.5 62.8L178.5 70.8C177.9 70.5 177.4 70.5 176.8 70.5C175.7 70.5 174.6 70.9 173.4 70.9C171.2 70.9 169 70.1 169 67.5C169 63.4 174.8 64.5 175.7 62.7ZM175.8 65C175.3 66.2 171.8 65.5 171.8 67.5C171.8 68.5 172.5 69 173.8 69C175 69 175.8 68.6 175.8 68.6L175.8 65Z" fill="#ed1c24" fill-rule="evenodd" opacity="1" stroke="none"/>
<path d="M180.9 54C181.1 54 183.7 54 183.7 55.4L183.7 66.7C183.7 67.9 183.7 69.9 185.2 69.9C184.6 70.7 183.9 70.8 183.4 70.8C181.6 70.8 180.8 69.2 180.8 67.4L180.8 54L180.9 54Z" fill="#ed1c24" fill-rule="evenodd" opacity="1" stroke="none"/>
<path d="M196.8 67.1C196.8 69.5 195.1 70.9 191.5 70.9C187.9 70.9 186.2 69.5 186.2 67.1L186.2 63C186.2 60.6 187.9 59.2 191.5 59.2C195.1 59.2 196.8 60.6 196.8 63L196.8 67.1ZM193.9 63.3C193.9 62 193.5 61.2 191.5 61.2C189.5 61.2 189.1 62 189.1 63.3L189.1 66.7C189.1 68 189.5 68.8 191.5 68.8C193.5 68.8 193.9 68 193.9 66.7L193.9 63.3Z" fill="#ed1c24" fill-rule="evenodd" opacity="1" stroke="none"/>
</g>
<g fill="#000000" opacity="1" stroke="none">
<path clip-path="url(#TextBounds_3)" d="M97.0172-62.6623C97.0172-56.9504 101.442-54.9418 106.464-54.9418C111.485-54.9418 115.91-56.7621 115.91-62.3485L115.91-66.9306L108.629-66.9306C106.338-66.9306 105.491-67.3385 105.491-67.3385C105.491-65.4241 106.056-63.8235 108.096-63.8235L111.705-63.8235L111.705-62.8192C111.705-58.8335 109.539-58.2058 106.464-58.2058C103.388-58.2058 101.223-59.3984 101.223-63.1331L101.223-69.9748C101.223-73.7095 103.388-74.8707 106.464-74.8707C109.634-74.8707 113.463-74.0234 114.247-71.1046C114.938-72.1717 115.22-73.0818 115.22-73.8664C115.22-76.9735 110.669-78.1347 106.464-78.1347C101.442-78.1347 97.0172-76.1261 97.0172-70.4142L97.0172-62.6623Z" fill-rule="evenodd"/>
<path clip-path="url(#TextBounds_3)" d="M123.443-65.8635C123.443-67.7779 124.039-68.8764 126.173-68.8764C128.119-68.8764 128.841-67.9662 128.841-66.6481C128.841-65.3927 128.056-64.6709 125.796-64.6709C124.855-64.6709 123.756-64.8906 123.443-64.9534L123.443-65.8635ZM126.926-54.9418C130.535-54.9418 133.14-56.4483 133.14-58.7079C133.14-59.4925 132.826-60.3399 132.167-61.2814C132.136-59.3984 130.033-58.0802 126.926-58.0802C124.572-58.0802 123.443-59.0531 123.443-60.9362L123.443-62.066C124.384-61.6894 125.388-61.5011 126.393-61.5011C131.351-61.5011 132.921-63.9804 132.921-66.6481C132.921-69.7865 130.787-71.8579 126.299-71.8579C121.811-71.8579 119.363-69.7865 119.363-66.3343L119.363-60.4654C119.363-57.0132 122.156-54.9418 126.926-54.9418Z" fill-rule="evenodd"/>
<path clip-path="url(#TextBounds_3)" d="M146.353-57.1387C146.353-55.1615 150.433-55.0988 150.433-55.0988L150.433-66.6795C150.433-70.7594 147.012-71.8579 143.78-71.8579C142.085-71.8579 140.641-71.1988 139.103-71.1988C137.503-71.1988 136.279-71.8579 136.279-71.8579L136.279-57.1387C136.279-55.0988 140.359-55.0988 140.359-55.0988L140.359-68.3742C140.359-68.3742 141.74-68.8136 143.34-68.8136C145.568-68.8136 146.353-67.8721 146.353-66.2087L146.353-57.1387Z" fill-rule="evenodd"/>
<path clip-path="url(#TextBounds_3)" d="M154.513-57.3584C154.513-55.3498 157.902-55.3184 157.902-55.3184L161.763-55.3184C166.815-55.3184 170.268-57.0446 170.268-61.1559L170.268-61.9405C170.268-63.9804 169.138-65.9576 167.506-66.6795C168.918-67.3385 169.954-69.3157 169.954-71.2616L169.954-72.0462C169.954-76.3458 166.533-77.7581 161.763-77.7581L154.513-77.7581L154.513-57.3584ZM162.014-65.1103C164.838-65.1103 166.062-63.9177 166.062-61.6266C166.062-59.3042 164.775-58.4255 161.763-58.4255L158.718-58.4255L158.718-65.1103L162.014-65.1103ZM161.763-74.651C164.462-74.651 165.748-74.0547 165.748-71.7323C165.748-69.4413 164.775-68.2173 162.014-68.2173L158.718-68.2173L158.718-74.651L161.763-74.651Z" fill-rule="evenodd"/>
<path clip-path="url(#TextBounds_3)" d="M174.034-57.0446C174.034-55.0046 178.239-55.0046 178.239-55.0046L178.239-76.0319C178.239-78.0719 174.034-78.0719 174.034-78.0719L174.034-57.0446Z" fill-rule="evenodd"/>
</g>
<g fill="#000000" opacity="1" stroke="none">
<path clip-path="url(#TextBounds_4)" d="M98.7226-31.3828C98.7226-28.2103 101.18-27.0947 103.969-27.0947C106.758-27.0947 109.216-28.1058 109.216-31.2085L109.216-33.7535L105.172-33.7535C103.9-33.7535 103.429-33.9801 103.429-33.9801C103.429-32.9168 103.743-32.0278 104.876-32.0278L106.88-32.0278L106.88-31.47C106.88-29.2562 105.678-28.9076 103.969-28.9076C102.261-28.9076 101.058-29.57 101.058-31.6443L101.058-35.4443C101.058-37.5186 102.261-38.1636 103.969-38.1636C105.73-38.1636 107.857-37.693 108.292-36.0718C108.676-36.6645 108.833-37.17 108.833-37.6058C108.833-39.3315 106.305-39.9765 103.969-39.9765C101.18-39.9765 98.7226-38.8609 98.7226-35.6884L98.7226-31.3828Z" fill-rule="evenodd"/>
<path clip-path="url(#TextBounds_4)" d="M119.536-33.4223C119.536-35.3397 118.193-36.4902 115.335-36.4902C112.476-36.4902 111.134-35.3397 111.134-33.4223L111.134-30.1626C111.134-28.2452 112.476-27.0947 115.335-27.0947C118.193-27.0947 119.536-28.2452 119.536-30.1626L119.536-33.4223ZM117.269-30.4241C117.269-29.3608 116.938-28.7507 115.335-28.7507C113.731-28.7507 113.4-29.3608 113.4-30.4241L113.4-33.1608C113.4-34.2241 113.731-34.8342 115.335-34.8342C116.938-34.8342 117.269-34.2241 117.269-33.1608L117.269-30.4241Z" fill-rule="evenodd"/>
<path clip-path="url(#TextBounds_4)" d="M123.719-27.1819L123.719-34.5379C123.911-34.5728 124.434-34.7296 125.026-34.7296C126.037-34.7296 126.909-34.2416 126.909-33.1434C127.048-33.3526 127.711-33.9975 127.711-34.8517C127.711-36.037 126.595-36.4902 125.358-36.4902C124.329-36.4902 123.562-36.1241 122.795-36.1241C122.412-36.1241 121.976-36.2113 121.453-36.4728L121.453-28.3149C121.453-27.1819 123.719-27.1819 123.719-27.1819Z" fill-rule="evenodd"/>
<path clip-path="url(#TextBounds_4)" d="M136.618-33.4223C136.618-35.3397 135.276-36.4902 132.417-36.4902C129.559-36.4902 128.216-35.3397 128.216-33.4223L128.216-30.1626C128.216-28.2452 129.559-27.0947 132.417-27.0947C135.276-27.0947 136.618-28.2452 136.618-30.1626L136.618-33.4223ZM134.352-30.4241C134.352-29.3608 134.021-28.7507 132.417-28.7507C130.814-28.7507 130.482-29.3608 130.482-30.4241L130.482-33.1608C130.482-34.2241 130.814-34.8342 132.417-34.8342C134.021-34.8342 134.352-34.2241 134.352-33.1608L134.352-30.4241Z" fill-rule="evenodd"/>
<path clip-path="url(#TextBounds_4)" d="M144.131-28.3149C144.131-27.2168 146.397-27.1819 146.397-27.1819L146.397-33.614C146.397-35.8801 144.497-36.4902 142.702-36.4902C141.76-36.4902 140.959-36.1241 140.104-36.1241C139.215-36.1241 138.536-36.4902 138.536-36.4902L138.536-28.3149C138.536-27.1819 140.802-27.1819 140.802-27.1819L140.802-34.5553C140.802-34.5553 141.569-34.7994 142.458-34.7994C143.695-34.7994 144.131-34.2764 144.131-33.3526L144.131-28.3149Z" fill-rule="evenodd"/>
<path clip-path="url(#TextBounds_4)" d="M148.506-30.1626C148.506-28.2278 149.814-27.0947 152.097-27.0947C154.189-27.0947 155.2-28.0186 155.2-29.0819C155.2-29.6223 154.938-30.1103 154.468-30.6333C154.468-29.2388 153.422-28.803 152.411-28.803C151.086-28.803 150.755-29.4828 150.755-30.6507L150.755-34.1544L153.021-34.1544C154.293-34.1544 154.311-35.8627 154.311-35.8627L150.755-35.8627L150.755-36.4902C150.755-37.9719 148.96-37.9719 148.506-37.9719L148.506-30.1626Z" fill-rule="evenodd"/>
<path clip-path="url(#TextBounds_4)" d="M161.371-28.9947C161.371-28.9947 160.673-28.681 159.749-28.681C158.756-28.681 158.181-29.0819 158.181-29.8663C158.181-31.4177 160.97-30.9122 161.371-31.836L161.371-28.9947ZM155.932-29.8314C155.932-27.7571 157.693-27.0947 159.488-27.0947C160.482-27.0947 161.353-27.4085 162.225-27.4085C162.661-27.4085 163.114-27.3562 163.567-27.1296L163.567-33.5094C163.567-35.4095 162.207-36.4902 159.645-36.4902C158.216-36.4902 156.176-36.037 156.176-34.5205C156.176-34.0498 156.333-33.5094 156.838-32.8296C156.838-34.2939 158.163-34.7994 159.627-34.7994C160.97-34.7994 161.318-34.2416 161.318-33.614C160.604-32.237 155.932-33.0911 155.932-29.8314Z" fill-rule="evenodd"/>
<path clip-path="url(#TextBounds_4)" d="M165.467-29.9186C165.467-28.4544 166.112-27.1819 167.524-27.1819C167.96-27.1819 168.5-27.2516 168.971-27.8791C167.75-27.8791 167.733-29.5351 167.733-30.4764L167.733-39.4884C167.733-40.604 165.606-40.6214 165.467-40.6214L165.467-29.9186Z" fill-rule="evenodd"/>
<path clip-path="url(#TextBounds_4)" d="M178.139-33.4223C178.139-35.3397 176.797-36.4902 173.939-36.4902C171.08-36.4902 169.738-35.3397 169.738-33.4223L169.738-30.1626C169.738-28.2452 171.08-27.0947 173.939-27.0947C176.797-27.0947 178.139-28.2452 178.139-30.1626L178.139-33.4223ZM175.873-30.4241C175.873-29.3608 175.542-28.7507 173.939-28.7507C172.335-28.7507 172.004-29.3608 172.004-30.4241L172.004-33.1608C172.004-34.2241 172.335-34.8342 173.939-34.8342C175.542-34.8342 175.873-34.2241 175.873-33.1608L175.873-30.4241Z" fill-rule="evenodd"/>
</g>
</g>
</svg>
