<?xml version="1.0" encoding="UTF-8" standalone="no"?>
<!DOCTYPE svg PUBLIC "-//W3C//DTD SVG 1.1//EN" "http://www.w3.org/Graphics/SVG/1.1/DTD/svg11.dtd"
[
<!ATTLIST g
  xmlns:vectornator CDATA #FIXED "http://vectornator.io"
  vectornator:layerName CDATA #IMPLIED >
<!ATTLIST g
  xmlns:vectornator CDATA #FIXED "http://vectornator.io"
  vectornator:mask CDATA #IMPLIED >
<!ATTLIST text
  xmlns:vectornator CDATA #FIXED "http://vectornator.io"
  vectornator:width CDATA #IMPLIED >
<!ATTLIST text
  xmlns:vectornator CDATA #FIXED "http://vectornator.io"
  vectornator:text CDATA #IMPLIED >

<!ATTLIST path
  xmlns:vectornator CDATA #FIXED "http://vectornator.io"
  vectornator:blendMode CDATA #IMPLIED >
<!ATTLIST path
  xmlns:vectornator CDATA #FIXED "http://vectornator.io"
  vectornator:shadowColor CDATA #IMPLIED >
<!ATTLIST path
  xmlns:vectornator CDATA #FIXED "http://vectornator.io"
  vectornator:shadowOpacity CDATA #IMPLIED >
<!ATTLIST path
  xmlns:vectornator CDATA #FIXED "http://vectornator.io"
  vectornator:shadowRadius CDATA #IMPLIED >
<!ATTLIST path
  xmlns:vectornator CDATA #FIXED "http://vectornator.io"
  vectornator:shadowOffset CDATA #IMPLIED >
<!ATTLIST path
  xmlns:vectornator CDATA #FIXED "http://vectornator.io"
  vectornator:shadowAngle CDATA #IMPLIED >

<!ATTLIST image
  xmlns:vectornator CDATA #FIXED "http://vectornator.io"
  vectornator:blendMode CDATA #IMPLIED >
<!ATTLIST image
  xmlns:vectornator CDATA #FIXED "http://vectornator.io"
  vectornator:shadowColor CDATA #IMPLIED >
<!ATTLIST image
  xmlns:vectornator CDATA #FIXED "http://vectornator.io"
  vectornator:shadowOpacity CDATA #IMPLIED >
<!ATTLIST image
  xmlns:vectornator CDATA #FIXED "http://vectornator.io"
  vectornator:shadowRadius CDATA #IMPLIED >
<!ATTLIST image
  xmlns:vectornator CDATA #FIXED "http://vectornator.io"
  vectornator:shadowOffset CDATA #IMPLIED >
<!ATTLIST image
  xmlns:vectornator CDATA #FIXED "http://vectornator.io"
  vectornator:shadowAngle CDATA #IMPLIED >

<!ATTLIST g
  xmlns:vectornator CDATA #FIXED "http://vectornator.io"
  vectornator:blendMode CDATA #IMPLIED >
<!ATTLIST g
  xmlns:vectornator CDATA #FIXED "http://vectornator.io"
  vectornator:shadowColor CDATA #IMPLIED >
<!ATTLIST g
  xmlns:vectornator CDATA #FIXED "http://vectornator.io"
  vectornator:shadowOpacity CDATA #IMPLIED >
<!ATTLIST g
  xmlns:vectornator CDATA #FIXED "http://vectornator.io"
  vectornator:shadowRadius CDATA #IMPLIED >
<!ATTLIST g
  xmlns:vectornator CDATA #FIXED "http://vectornator.io"
  vectornator:shadowOffset CDATA #IMPLIED >
<!ATTLIST g
  xmlns:vectornator CDATA #FIXED "http://vectornator.io"
  vectornator:shadowAngle CDATA #IMPLIED >

<!ENTITY % SVG.filter.extra.content  "| feDropShadow" >
<!ELEMENT feDropShadow EMPTY>
<!ATTLIST feDropShadow
  xmlns:svg CDATA #FIXED "http://www.w3.org/Graphics/SVG/1.1/DTD/svg11.dtd"
  dx CDATA #IMPLIED>
<!ATTLIST feDropShadow
  xmlns:svg CDATA #FIXED "http://www.w3.org/Graphics/SVG/1.1/DTD/svg11.dtd"
  dy CDATA #IMPLIED>
<!ATTLIST feDropShadow
  xmlns:svg CDATA #FIXED "http://www.w3.org/Graphics/SVG/1.1/DTD/svg11.dtd"
  stdDeviation CDATA #IMPLIED>
<!ATTLIST feDropShadow
  xmlns:svg CDATA #FIXED "http://www.w3.org/Graphics/SVG/1.1/DTD/svg11.dtd"
  flood-opacity CDATA #IMPLIED>
<!ATTLIST feDropShadow
  xmlns:svg CDATA #FIXED "http://www.w3.org/Graphics/SVG/1.1/DTD/svg11.dtd"
  in CDATA #IMPLIED>
<!ATTLIST feDropShadow
  xmlns:svg CDATA #FIXED "http://www.w3.org/Graphics/SVG/1.1/DTD/svg11.dtd"
  result CDATA #IMPLIED>
<!ATTLIST feDropShadow
  xmlns:svg CDATA #FIXED "http://www.w3.org/Graphics/SVG/1.1/DTD/svg11.dtd"
  flood-color CDATA #IMPLIED>
]
>
<!-- Created with Vectornator (http://vectornator.io/) -->
<svg height="100%" stroke-miterlimit="10" style="fill-rule:nonzero;clip-rule:evenodd;stroke-linecap:round;stroke-linejoin:round;" version="1.1" viewBox="0 0 224.488 86" width="100%" xml:space="preserve" xmlns="http://www.w3.org/2000/svg" xmlns:vectornator="http://vectornator.io" xmlns:xlink="http://www.w3.org/1999/xlink">
<defs>
<clipPath id="TextBounds">
<rect height="22.4879" width="128.689" x="96.1042" y="15.9807"/>
</clipPath>
<clipPath id="TextBounds_2">
<rect height="22.4879" width="128.689" x="96.1042" y="33.4764"/>
</clipPath>
<clipPath id="TextBounds_3">
<rect height="21.1659" width="116.451" x="96.1042" y="55.9695"/>
</clipPath>
</defs>
<g id="Layer-1" vectornator:layerName="Layer 1">
<g fill="#0035a0" opacity="1" stroke="none">
<path clip-path="url(#TextBounds)" d="M98.7442 29.5347C98.7442 32.9927 101.423 34.2087 104.463 34.2087C107.503 34.2087 110.182 33.1067 110.182 29.7247L110.182 26.9507L105.774 26.9507C104.387 26.9507 103.874 26.7037 103.874 26.7037C103.874 27.8627 104.216 28.8317 105.451 28.8317L107.636 28.8317L107.636 29.4397C107.636 31.8527 106.325 32.2327 104.463 32.2327C102.601 32.2327 101.29 31.5107 101.29 29.2497L101.29 25.1077C101.29 22.8467 102.601 22.1437 104.463 22.1437C106.382 22.1437 108.7 22.6567 109.175 24.4237C109.593 23.7777 109.764 23.2267 109.764 22.7517C109.764 20.8707 107.009 20.1677 104.463 20.1677C101.423 20.1677 98.7442 21.3837 98.7442 24.8417L98.7442 29.5347Z" fill-rule="evenodd"/>
<path clip-path="url(#TextBounds)" d="M114.742 27.5967C114.742 26.4377 115.103 25.7727 116.395 25.7727C117.573 25.7727 118.01 26.3237 118.01 27.1217C118.01 27.8817 117.535 28.3187 116.167 28.3187C115.597 28.3187 114.932 28.1857 114.742 28.1477L114.742 27.5967ZM116.851 34.2087C119.036 34.2087 120.613 33.2967 120.613 31.9287C120.613 31.4537 120.423 30.9407 120.024 30.3707C120.005 31.5107 118.732 32.3087 116.851 32.3087C115.426 32.3087 114.742 31.7197 114.742 30.5797L114.742 29.8957C115.312 30.1237 115.92 30.2377 116.528 30.2377C119.53 30.2377 120.48 28.7367 120.48 27.1217C120.48 25.2217 119.188 23.9677 116.471 23.9677C113.754 23.9677 112.272 25.2217 112.272 27.3117L112.272 30.8647C112.272 32.9547 113.963 34.2087 116.851 34.2087Z" fill-rule="evenodd"/>
<path clip-path="url(#TextBounds)" d="M128.612 32.8787C128.612 34.0757 131.082 34.1137 131.082 34.1137L131.082 27.1027C131.082 24.6327 129.011 23.9677 127.054 23.9677C126.028 23.9677 125.154 24.3667 124.223 24.3667C123.254 24.3667 122.513 23.9677 122.513 23.9677L122.513 32.8787C122.513 34.1137 124.983 34.1137 124.983 34.1137L124.983 26.0767C124.983 26.0767 125.819 25.8107 126.788 25.8107C128.137 25.8107 128.612 26.3807 128.612 27.3877L128.612 32.8787Z" fill-rule="evenodd"/>
<path clip-path="url(#TextBounds)" d="M135.642 27.5967C135.642 26.4377 136.003 25.7727 137.295 25.7727C138.473 25.7727 138.91 26.3237 138.91 27.1217C138.91 27.8817 138.435 28.3187 137.067 28.3187C136.497 28.3187 135.832 28.1857 135.642 28.1477L135.642 27.5967ZM137.751 34.2087C139.936 34.2087 141.513 33.2967 141.513 31.9287C141.513 31.4537 141.323 30.9407 140.924 30.3707C140.905 31.5107 139.632 32.3087 137.751 32.3087C136.326 32.3087 135.642 31.7197 135.642 30.5797L135.642 29.8957C136.212 30.1237 136.82 30.2377 137.428 30.2377C140.43 30.2377 141.38 28.7367 141.38 27.1217C141.38 25.2217 140.088 23.9677 137.371 23.9677C134.654 23.9677 133.172 25.2217 133.172 27.3117L133.172 30.8647C133.172 32.9547 134.863 34.2087 137.751 34.2087Z" fill-rule="evenodd"/>
<path clip-path="url(#TextBounds)" d="M145.883 34.1137L145.883 26.0957C146.092 26.0577 146.662 25.8867 147.308 25.8867C148.41 25.8867 149.36 26.4187 149.36 27.6157C149.512 27.3877 150.234 26.6847 150.234 25.7537C150.234 24.4617 149.018 23.9677 147.669 23.9677C146.548 23.9677 145.712 24.3667 144.876 24.3667C144.458 24.3667 143.983 24.2717 143.413 23.9867L143.413 32.8787C143.413 34.1137 145.883 34.1137 145.883 34.1137Z" fill-rule="evenodd"/>
<path clip-path="url(#TextBounds)" d="M156.561 32.1377C156.561 32.1377 155.801 32.4797 154.794 32.4797C153.711 32.4797 153.084 32.0427 153.084 31.1877C153.084 29.4967 156.124 30.0477 156.561 29.0407L156.561 32.1377ZM150.633 31.2257C150.633 33.4867 152.552 34.2087 154.509 34.2087C155.592 34.2087 156.542 33.8667 157.492 33.8667C157.967 33.8667 158.461 33.9237 158.955 34.1707L158.955 27.2167C158.955 25.1457 157.473 23.9677 154.68 23.9677C153.122 23.9677 150.899 24.4617 150.899 26.1147C150.899 26.6277 151.07 27.2167 151.621 27.9577C151.621 26.3617 153.065 25.8107 154.661 25.8107C156.124 25.8107 156.504 26.4187 156.504 27.1027C155.725 28.6037 150.633 27.6727 150.633 31.2257Z" fill-rule="evenodd"/>
<path clip-path="url(#TextBounds)" d="M166.707 31.0547C166.707 32.0807 165.548 32.3657 164.75 32.3657C163.325 32.3657 161.634 32.0047 161.596 30.3897C160.95 31.0737 160.703 31.6437 160.703 32.1757C160.703 33.4867 162.356 34.2087 164.75 34.2087C167.676 34.2087 169.12 33.0307 169.12 31.1497C169.12 26.6277 162.983 28.8507 162.983 27.0077C162.983 26.1907 163.61 25.8487 164.94 25.8487C166.536 25.8487 167.885 26.4187 167.885 27.5967C168.398 26.9507 168.607 26.3807 168.607 25.8867C168.607 24.6137 167.049 23.9677 164.75 23.9677C162.052 23.9677 160.551 25.0127 160.551 27.1217C160.551 31.2447 166.707 28.9267 166.707 31.0547Z" fill-rule="evenodd"/>
<path clip-path="url(#TextBounds)" d="M170.83 32.8787C170.83 34.1137 173.3 34.1137 173.3 34.1137L173.3 25.2977C173.3 24.0817 170.982 24.0627 170.83 24.0627L170.83 32.8787ZM170.887 22.1247C170.887 22.3907 171.191 22.6757 171.59 22.6757L173.262 22.6757L173.262 21.0987C173.262 20.8327 172.863 20.5477 172.559 20.5477L170.887 20.5477L170.887 22.1247Z" fill-rule="evenodd"/>
<path clip-path="url(#TextBounds)" d="M181.09 32.7457C181.09 33.9617 183.142 33.9807 183.142 33.9807L185.479 33.9807C188.538 33.9807 190.628 32.9357 190.628 30.4467L190.628 29.9717C190.628 28.7367 189.944 27.5397 188.956 27.1027C189.811 26.7037 190.438 25.5067 190.438 24.3287L190.438 23.8537C190.438 21.2507 188.367 20.3957 185.479 20.3957L181.09 20.3957L181.09 32.7457ZM185.631 28.0527C187.341 28.0527 188.082 28.7747 188.082 30.1617C188.082 31.5677 187.303 32.0997 185.479 32.0997L183.636 32.0997L183.636 28.0527L185.631 28.0527ZM185.479 22.2767C187.113 22.2767 187.892 22.6377 187.892 24.0437C187.892 25.4307 187.303 26.1717 185.631 26.1717L183.636 26.1717L183.636 22.2767L185.479 22.2767Z" fill-rule="evenodd"/>
<path clip-path="url(#TextBounds)" d="M198.304 32.1377C198.304 32.1377 197.544 32.4797 196.537 32.4797C195.454 32.4797 194.827 32.0427 194.827 31.1877C194.827 29.4967 197.867 30.0477 198.304 29.0407L198.304 32.1377ZM192.376 31.2257C192.376 33.4867 194.295 34.2087 196.252 34.2087C197.335 34.2087 198.285 33.8667 199.235 33.8667C199.71 33.8667 200.204 33.9237 200.698 34.1707L200.698 27.2167C200.698 25.1457 199.216 23.9677 196.423 23.9677C194.865 23.9677 192.642 24.4617 192.642 26.1147C192.642 26.6277 192.813 27.2167 193.364 27.9577C193.364 26.3617 194.808 25.8107 196.404 25.8107C197.867 25.8107 198.247 26.4187 198.247 27.1027C197.468 28.6037 192.376 27.6727 192.376 31.2257Z" fill-rule="evenodd"/>
<path clip-path="url(#TextBounds)" d="M205.334 34.1137L205.334 26.0957C205.543 26.0577 206.113 25.8867 206.759 25.8867C207.861 25.8867 208.811 26.4187 208.811 27.6157C208.963 27.3877 209.685 26.6847 209.685 25.7537C209.685 24.4617 208.469 23.9677 207.12 23.9677C205.999 23.9677 205.163 24.3667 204.327 24.3667C203.909 24.3667 203.434 24.2717 202.864 23.9867L202.864 32.8787C202.864 34.1137 205.334 34.1137 205.334 34.1137Z" fill-rule="evenodd"/>
<path clip-path="url(#TextBounds)" d="M213.086 25.2977C213.086 24.1007 210.616 24.0627 210.616 24.0627L210.616 31.0737C210.616 33.5437 212.687 34.2087 214.644 34.2087C215.67 34.2087 216.544 33.8097 217.475 33.8097C218.444 33.8097 219.185 34.2087 219.185 34.2087L219.185 25.2977C219.185 24.0627 216.715 24.0627 216.715 24.0627L216.715 32.0997C216.715 32.0997 215.879 32.3657 214.91 32.3657C213.561 32.3657 213.086 31.7957 213.086 30.7887L213.086 25.2977Z" fill-rule="evenodd"/>
</g>
<g fill="#0035a0" opacity="1" stroke="none">
<path clip-path="url(#TextBounds_2)" d="M98.9342 50.4314C98.9342 51.6664 101.48 51.6664 101.48 51.6664L101.48 38.9364C101.48 37.7014 98.9342 37.7014 98.9342 37.7014L98.9342 50.4314Z" fill-rule="evenodd"/>
<path clip-path="url(#TextBounds_2)" d="M110.049 50.3744C110.049 51.5714 112.519 51.6094 112.519 51.6094L112.519 44.5984C112.519 42.1284 110.448 41.4634 108.491 41.4634C107.465 41.4634 106.591 41.8624 105.66 41.8624C104.691 41.8624 103.95 41.4634 103.95 41.4634L103.95 50.3744C103.95 51.6094 106.42 51.6094 106.42 51.6094L106.42 43.5724C106.42 43.5724 107.256 43.3064 108.225 43.3064C109.574 43.3064 110.049 43.8764 110.049 44.8834L110.049 50.3744Z" fill-rule="evenodd"/>
<path clip-path="url(#TextBounds_2)" d="M120.708 41.1024C120.708 41.5774 120.86 42.2044 120.86 42.2044C120.86 42.2044 119.986 41.4634 118.409 41.4634C116.376 41.4634 114.609 42.6984 114.609 44.7504L114.609 48.3984C114.609 50.5074 116.167 51.7044 118.884 51.7044C119.682 51.7044 120.651 51.3814 121.658 51.3814C122.171 51.3814 122.684 51.4574 123.178 51.7044L123.178 38.4234C123.178 36.9794 120.879 36.9984 120.708 36.9984L120.708 41.1024ZM120.708 49.6714C120.708 49.6714 119.967 49.8994 119.112 49.8994C117.535 49.8994 117.079 49.3104 117.079 48.1134L117.079 45.0354C117.079 43.8004 117.744 43.2684 118.656 43.2684C119.682 43.2684 120.708 43.9144 120.708 44.8454L120.708 49.6714Z" fill-rule="evenodd"/>
<path clip-path="url(#TextBounds_2)" d="M134.426 44.8074C134.426 42.7174 132.963 41.4634 129.847 41.4634C126.731 41.4634 125.268 42.7174 125.268 44.8074L125.268 48.3604C125.268 50.4504 126.731 51.7044 129.847 51.7044C132.963 51.7044 134.426 50.4504 134.426 48.3604L134.426 44.8074ZM131.956 48.0754C131.956 49.2344 131.595 49.8994 129.847 49.8994C128.099 49.8994 127.738 49.2344 127.738 48.0754L127.738 45.0924C127.738 43.9334 128.099 43.2684 129.847 43.2684C131.595 43.2684 131.956 43.9334 131.956 45.0924L131.956 48.0754Z" fill-rule="evenodd"/>
<path clip-path="url(#TextBounds_2)" d="M142.615 50.3744C142.615 51.5714 145.085 51.6094 145.085 51.6094L145.085 44.5984C145.085 42.1284 143.014 41.4634 141.057 41.4634C140.031 41.4634 139.157 41.8624 138.226 41.8624C137.257 41.8624 136.516 41.4634 136.516 41.4634L136.516 50.3744C136.516 51.6094 138.986 51.6094 138.986 51.6094L138.986 43.5724C138.986 43.5724 139.822 43.3064 140.791 43.3064C142.14 43.3064 142.615 43.8764 142.615 44.8834L142.615 50.3744Z" fill-rule="evenodd"/>
<path clip-path="url(#TextBounds_2)" d="M149.645 45.0924C149.645 43.9334 150.006 43.2684 151.298 43.2684C152.476 43.2684 152.913 43.8194 152.913 44.6174C152.913 45.3774 152.438 45.8144 151.07 45.8144C150.5 45.8144 149.835 45.6814 149.645 45.6434L149.645 45.0924ZM151.754 51.7044C153.939 51.7044 155.516 50.7924 155.516 49.4244C155.516 48.9494 155.326 48.4364 154.927 47.8664C154.908 49.0064 153.635 49.8044 151.754 49.8044C150.329 49.8044 149.645 49.2154 149.645 48.0754L149.645 47.3914C150.215 47.6194 150.823 47.7334 151.431 47.7334C154.433 47.7334 155.383 46.2324 155.383 44.6174C155.383 42.7174 154.091 41.4634 151.374 41.4634C148.657 41.4634 147.175 42.7174 147.175 44.8074L147.175 48.3604C147.175 50.4504 148.866 51.7044 151.754 51.7044Z" fill-rule="evenodd"/>
<path clip-path="url(#TextBounds_2)" d="M163.002 48.5504C163.002 49.5764 161.843 49.8614 161.045 49.8614C159.62 49.8614 157.929 49.5004 157.891 47.8854C157.245 48.5694 156.998 49.1394 156.998 49.6714C156.998 50.9824 158.651 51.7044 161.045 51.7044C163.971 51.7044 165.415 50.5264 165.415 48.6454C165.415 44.1234 159.278 46.3464 159.278 44.5034C159.278 43.6864 159.905 43.3444 161.235 43.3444C162.831 43.3444 164.18 43.9144 164.18 45.0924C164.693 44.4464 164.902 43.8764 164.902 43.3824C164.902 42.1094 163.344 41.4634 161.045 41.4634C158.347 41.4634 156.846 42.5084 156.846 44.6174C156.846 48.7404 163.002 46.4224 163.002 48.5504Z" fill-rule="evenodd"/>
<path clip-path="url(#TextBounds_2)" d="M167.125 50.3744C167.125 51.6094 169.595 51.6094 169.595 51.6094L169.595 42.7934C169.595 41.5774 167.277 41.5584 167.125 41.5584L167.125 50.3744ZM167.182 39.6204C167.182 39.8864 167.486 40.1714 167.885 40.1714L169.557 40.1714L169.557 38.5944C169.557 38.3284 169.158 38.0434 168.854 38.0434L167.182 38.0434L167.182 39.6204Z" fill-rule="evenodd"/>
<path clip-path="url(#TextBounds_2)" d="M177.461 49.6334C177.461 49.6334 176.701 49.9754 175.694 49.9754C174.611 49.9754 173.984 49.5384 173.984 48.6834C173.984 46.9924 177.024 47.5434 177.461 46.5364L177.461 49.6334ZM171.533 48.7214C171.533 50.9824 173.452 51.7044 175.409 51.7044C176.492 51.7044 177.442 51.3624 178.392 51.3624C178.867 51.3624 179.361 51.4194 179.855 51.6664L179.855 44.7124C179.855 42.6414 178.373 41.4634 175.58 41.4634C174.022 41.4634 171.799 41.9574 171.799 43.6104C171.799 44.1234 171.97 44.7124 172.521 45.4534C172.521 43.8574 173.965 43.3064 175.561 43.3064C177.024 43.3064 177.404 43.9144 177.404 44.5984C176.625 46.0994 171.533 45.1684 171.533 48.7214Z" fill-rule="evenodd"/>
</g>
<g fill="#ed1c24" opacity="1" stroke="none">
<path clip-path="url(#TextBounds_3)" d="M98.7442 69.5235C98.7442 72.9815 101.423 74.1975 104.463 74.1975C107.503 74.1975 110.182 73.0955 110.182 69.7135L110.182 66.9395L105.774 66.9395C104.387 66.9395 103.874 66.6925 103.874 66.6925C103.874 67.8515 104.216 68.8205 105.451 68.8205L107.636 68.8205L107.636 69.4285C107.636 71.8415 106.325 72.2215 104.463 72.2215C102.601 72.2215 101.29 71.4995 101.29 69.2385L101.29 65.0965C101.29 62.8355 102.601 62.1325 104.463 62.1325C106.382 62.1325 108.7 62.6455 109.175 64.4125C109.593 63.7665 109.764 63.2155 109.764 62.7405C109.764 60.8595 107.009 60.1565 104.463 60.1565C101.423 60.1565 98.7442 61.3725 98.7442 64.8305L98.7442 69.5235Z" fill-rule="evenodd"/>
<path clip-path="url(#TextBounds_3)" d="M121.43 67.3005C121.43 65.2105 119.967 63.9565 116.851 63.9565C113.735 63.9565 112.272 65.2105 112.272 67.3005L112.272 70.8535C112.272 72.9435 113.735 74.1975 116.851 74.1975C119.967 74.1975 121.43 72.9435 121.43 70.8535L121.43 67.3005ZM118.96 70.5685C118.96 71.7275 118.599 72.3925 116.851 72.3925C115.103 72.3925 114.742 71.7275 114.742 70.5685L114.742 67.5855C114.742 66.4265 115.103 65.7615 116.851 65.7615C118.599 65.7615 118.96 66.4265 118.96 67.5855L118.96 70.5685Z" fill-rule="evenodd"/>
<path clip-path="url(#TextBounds_3)" d="M125.99 74.1025L125.99 66.0845C126.199 66.0465 126.769 65.8755 127.415 65.8755C128.517 65.8755 129.467 66.4075 129.467 67.6045C129.619 67.3765 130.341 66.6735 130.341 65.7425C130.341 64.4505 129.125 63.9565 127.776 63.9565C126.655 63.9565 125.819 64.3555 124.983 64.3555C124.565 64.3555 124.09 64.2605 123.52 63.9755L123.52 72.8675C123.52 74.1025 125.99 74.1025 125.99 74.1025Z" fill-rule="evenodd"/>
<path clip-path="url(#TextBounds_3)" d="M140.05 67.3005C140.05 65.2105 138.587 63.9565 135.471 63.9565C132.355 63.9565 130.892 65.2105 130.892 67.3005L130.892 70.8535C130.892 72.9435 132.355 74.1975 135.471 74.1975C138.587 74.1975 140.05 72.9435 140.05 70.8535L140.05 67.3005ZM137.58 70.5685C137.58 71.7275 137.219 72.3925 135.471 72.3925C133.723 72.3925 133.362 71.7275 133.362 70.5685L133.362 67.5855C133.362 66.4265 133.723 65.7615 135.471 65.7615C137.219 65.7615 137.58 66.4265 137.58 67.5855L137.58 70.5685Z" fill-rule="evenodd"/>
<path clip-path="url(#TextBounds_3)" d="M148.239 72.8675C148.239 74.0645 150.709 74.1025 150.709 74.1025L150.709 67.0915C150.709 64.6215 148.638 63.9565 146.681 63.9565C145.655 63.9565 144.781 64.3555 143.85 64.3555C142.881 64.3555 142.14 63.9565 142.14 63.9565L142.14 72.8675C142.14 74.1025 144.61 74.1025 144.61 74.1025L144.61 66.0655C144.61 66.0655 145.446 65.7995 146.415 65.7995C147.764 65.7995 148.239 66.3695 148.239 67.3765L148.239 72.8675Z" fill-rule="evenodd"/>
<path clip-path="url(#TextBounds_3)" d="M153.008 70.8535C153.008 72.9625 154.433 74.1975 156.922 74.1975C159.202 74.1975 160.304 73.1905 160.304 72.0315C160.304 71.4425 160.019 70.9105 159.506 70.3405C159.506 71.8605 158.366 72.3355 157.264 72.3355C155.82 72.3355 155.459 71.5945 155.459 70.3215L155.459 66.5025L157.929 66.5025C159.316 66.5025 159.335 64.6405 159.335 64.6405L155.459 64.6405L155.459 63.9565C155.459 62.3415 153.502 62.3415 153.008 62.3415L153.008 70.8535Z" fill-rule="evenodd"/>
<path clip-path="url(#TextBounds_3)" d="M167.03 72.1265C167.03 72.1265 166.27 72.4685 165.263 72.4685C164.18 72.4685 163.553 72.0315 163.553 71.1765C163.553 69.4855 166.593 70.0365 167.03 69.0295L167.03 72.1265ZM161.102 71.2145C161.102 73.4755 163.021 74.1975 164.978 74.1975C166.061 74.1975 167.011 73.8555 167.961 73.8555C168.436 73.8555 168.93 73.9125 169.424 74.1595L169.424 67.2055C169.424 65.1345 167.942 63.9565 165.149 63.9565C163.591 63.9565 161.368 64.4505 161.368 66.1035C161.368 66.6165 161.539 67.2055 162.09 67.9465C162.09 66.3505 163.534 65.7995 165.13 65.7995C166.593 65.7995 166.973 66.4075 166.973 67.0915C166.194 68.5925 161.102 67.6615 161.102 71.2145Z" fill-rule="evenodd"/>
<path clip-path="url(#TextBounds_3)" d="M171.495 71.1195C171.495 72.7155 172.198 74.1025 173.737 74.1025C174.212 74.1025 174.801 74.0265 175.314 73.3425C173.984 73.3425 173.965 71.5375 173.965 70.5115L173.965 60.6885C173.965 59.4725 171.647 59.4535 171.495 59.4535L171.495 71.1195Z" fill-rule="evenodd"/>
<path clip-path="url(#TextBounds_3)" d="M185.308 67.3005C185.308 65.2105 183.845 63.9565 180.729 63.9565C177.613 63.9565 176.15 65.2105 176.15 67.3005L176.15 70.8535C176.15 72.9435 177.613 74.1975 180.729 74.1975C183.845 74.1975 185.308 72.9435 185.308 70.8535L185.308 67.3005ZM182.838 70.5685C182.838 71.7275 182.477 72.3925 180.729 72.3925C178.981 72.3925 178.62 71.7275 178.62 70.5685L178.62 67.5855C178.62 66.4265 178.981 65.7615 180.729 65.7615C182.477 65.7615 182.838 66.4265 182.838 67.5855L182.838 70.5685Z" fill-rule="evenodd"/>
</g>
</g>
<g id="Untitled" vectornator:layerName="Untitled">
<g opacity="1">
<path d="M43.8365 23.8032C44.1758 23.6901 44.5152 23.6901 44.7414 23.577C46.3251 23.2376 47.9087 23.0114 49.6055 22.7852C50.8498 22.6721 52.0941 22.5589 53.3383 22.4458C55.1482 22.3327 57.0712 22.3327 58.8811 22.3327C61.8222 22.4458 64.7632 22.7852 67.5911 23.4639C70.8716 24.2557 74.0388 25.5 76.8668 27.423C78.5635 28.5542 80.1472 29.9116 81.3915 31.6083C81.6177 31.8346 81.7308 32.0608 81.9571 32.4002L81.9571 32.5133C81.8439 32.5133 81.8439 32.4002 81.7308 32.4002C80.4865 31.6083 79.1291 30.9296 77.7717 30.4772C76.7537 30.1378 75.7356 29.9116 74.7175 30.0247C73.1339 30.0247 71.6634 30.4772 70.306 31.0427L70.1928 31.0427L70.1928 31.0427C70.1928 31.0427 70.306 31.1559 70.306 31.269C71.324 32.4002 72.3421 33.5313 73.1339 34.7756C73.6995 35.5674 74.152 36.4724 74.4913 37.4904C74.7175 38.1691 74.8307 38.961 74.9438 39.6397C75.0569 40.6577 75.0569 41.6758 75.0569 42.6938C74.9438 44.2775 74.7175 45.9743 74.3782 47.4448C74.3782 47.4448 74.3782 47.5579 74.3782 47.671C74.3782 47.5579 74.2651 47.5579 74.2651 47.4448C73.4733 44.2775 72.1158 41.5627 70.0797 38.961C68.383 36.8117 66.46 35.0019 64.4239 33.3051C61.9353 31.3821 59.3336 29.7985 56.6188 28.441C52.7728 26.518 48.7005 24.9344 44.5152 23.9163C44.1758 23.9163 44.0627 23.8032 43.8365 23.8032L43.8365 23.8032Z" fill="#0035a0" fill-rule="evenodd" opacity="1" stroke="none"/>
<path d="M22.2311 38.1691C22.2311 37.9429 22.2311 37.7167 22.3442 37.4904C22.5704 36.0199 22.7966 34.5494 23.136 33.0789C23.8147 30.0247 24.7196 26.9705 25.7377 24.1426C26.7558 21.4278 28 18.7129 29.5837 16.2244C31.2804 13.5095 33.3166 11.1341 35.8051 9.09796C37.615 7.62743 39.6511 6.38314 41.9135 5.4782C42.366 5.36509 42.7053 5.25197 43.1578 5.02573L43.1578 5.02573C43.0447 5.02573 43.0447 5.13885 42.9315 5.13885C41.8004 6.04379 40.6692 7.06185 39.7643 8.30614C38.7462 9.66355 38.0675 11.1341 37.8413 12.8308C37.7281 13.6227 37.7281 14.5276 37.7281 15.3194C37.7281 15.4325 37.7281 15.5457 37.7281 15.5457L37.7281 15.6588C37.8413 15.6588 37.9544 15.5457 37.9544 15.5457C39.3118 14.9801 40.6692 14.4145 42.1397 14.0751C42.9315 13.8489 43.8365 13.7358 44.7414 13.7358C45.4201 13.7358 45.9857 13.8489 46.6644 13.962C49.153 14.4145 51.3022 15.3194 53.4515 16.5637C53.7908 16.7899 54.1302 17.0162 54.4695 17.2424C54.5826 17.2424 54.5826 17.3555 54.6958 17.3555C54.5826 17.3555 54.5826 17.3555 54.4695 17.3555C53.5646 17.2424 52.7728 17.2424 51.8678 17.2424C49.4924 17.3555 47.3431 17.6949 45.0808 18.4867C42.366 19.3916 39.9905 20.6359 37.615 22.2196C35.1264 23.8032 32.8641 25.7262 30.828 27.7623C27.7738 30.7034 25.1721 33.8707 22.6835 37.2642C22.5704 37.6036 22.4573 37.9429 22.2311 38.1691L22.2311 38.1691Z" fill="#0035a0" fill-rule="evenodd" opacity="1" stroke="none"/>
<path d="M26.4164 63.1681C26.3033 63.1681 26.3033 63.055 26.1902 63.055C24.154 61.8107 22.1179 60.3402 20.3081 58.8696C17.367 56.4942 14.5391 53.8925 12.0505 50.9514C10.4668 49.0284 8.99631 47.1054 7.86513 44.9562C6.50772 42.4676 5.60278 39.979 5.0372 37.2642C4.69784 35.6806 4.58473 33.9838 4.69784 32.4002C4.69784 31.8346 4.81096 31.269 4.81096 30.7034C4.81096 30.7034 4.81096 30.5903 4.92408 30.5903C4.92408 30.7034 4.92408 30.7034 5.0372 30.8165C5.37655 32.0608 5.82902 33.3051 6.28149 34.4363C7.18643 36.4724 8.65696 37.9429 10.58 38.961C11.1455 39.3003 11.7111 39.5266 12.2767 39.6397C12.3898 39.6397 12.5029 39.6397 12.5029 39.7528C12.5029 39.6397 12.5029 39.6397 12.5029 39.5266C12.5029 38.7347 12.5029 37.8298 12.6161 37.038C12.7292 35.6806 12.9554 34.21 13.4079 32.8526C13.7472 31.9477 14.1997 31.1559 14.7653 30.4772C16.0096 28.7804 17.4801 27.423 19.1769 26.1787C19.6293 25.8393 20.1949 25.5 20.7605 25.1606C20.8736 25.1606 20.8736 25.0475 20.9868 25.0475C20.9868 25.1606 20.8736 25.1606 20.8736 25.2738C19.6293 27.5361 18.7244 29.9116 18.2719 32.5133C17.9326 34.3232 17.8195 36.2462 17.8195 38.056C17.9326 40.2053 18.1588 42.3545 18.6113 44.3906C19.4031 48.4628 20.7605 52.3088 22.5704 56.0417C23.7016 58.5303 24.9459 60.9058 26.4164 63.1681C26.4164 63.055 26.4164 63.1681 26.4164 63.1681L26.4164 63.1681Z" fill="#0035a0" fill-rule="evenodd" opacity="1" stroke="none"/>
<path d="M51.8678 76.8553C51.8678 76.8553 51.9809 76.8553 51.8678 76.8553C54.5826 75.2717 56.845 73.3487 58.6549 70.9732C60.3516 68.824 61.709 66.4485 62.7271 63.9599C63.9714 61.132 64.7632 58.3041 65.3288 55.2499C65.6681 53.6662 65.8944 52.1957 66.1206 50.6121C66.3469 49.2547 66.46 47.7841 66.5731 46.4267C66.6862 44.9562 66.6862 43.4857 66.6862 42.0151C66.6862 41.7889 66.6862 41.5627 66.6862 41.2233C66.6862 41.3364 66.7993 41.4496 66.7993 41.4496C67.9305 43.5988 68.9486 45.8611 69.7404 48.1235C70.7584 50.9514 71.6634 53.7794 72.3421 56.7204C72.6814 58.3041 72.9077 59.8877 73.1339 61.4713C73.3601 63.055 73.3601 64.6386 73.3601 66.2223C73.247 69.7289 72.5683 73.1224 71.0978 76.4028C70.4191 77.7603 69.7404 79.1177 68.7223 80.2488C68.7223 80.2488 68.7223 80.2488 68.6092 80.362C68.6092 80.2488 68.6092 80.2488 68.7223 80.1357C69.0617 78.8914 69.2879 77.6471 69.5141 76.4028C69.8535 73.8011 69.0617 71.4257 67.478 69.2764C67.2518 69.0502 67.0256 68.7109 66.7993 68.4846C66.6862 68.5977 66.6862 68.5977 66.6862 68.7109C66.0075 69.9551 65.2157 71.0863 64.3107 72.1044C63.8583 72.5568 63.4058 73.1224 62.9533 73.5749C62.1615 74.3667 61.1435 74.9323 60.1254 75.3848C58.5418 76.0635 56.9581 76.4028 55.2613 76.7422C54.3564 76.8553 53.3383 76.9684 52.3203 76.9684C52.0941 76.8553 51.9809 76.8553 51.8678 76.8553L51.8678 76.8553Z" fill="#0035a0" fill-rule="evenodd" opacity="1" stroke="none"/>
<path d="M15.5571 77.6471C16.0096 77.6471 16.4621 77.7602 16.9145 77.7602C18.4982 77.8734 20.0818 77.8734 21.6655 77.534C22.7966 77.3078 23.8147 76.7422 24.7196 76.0635C25.5115 75.4979 26.077 74.9323 26.7557 74.2536C26.7557 74.1405 26.8689 74.1405 26.982 74.0274C26.8689 74.0274 26.7557 73.9143 26.7557 73.9143C25.3983 73.3487 24.0409 72.67 22.7966 71.8781C22.3442 71.6519 22.0048 71.3126 21.5523 70.9732C20.6474 70.2945 19.9687 69.5027 19.4031 68.4846C18.3851 66.901 17.7064 65.0911 17.1408 63.2812C16.9145 62.3763 16.6883 61.4713 16.4621 60.5664C16.4621 60.5664 16.4621 60.5664 16.4621 60.4533C16.4621 60.5664 16.5752 60.5664 16.5752 60.5664C18.6113 63.1681 21.0999 65.2042 24.0409 66.6747C26.4164 67.919 29.0181 68.824 31.6198 69.5027C33.2034 69.842 34.9002 70.1814 36.597 70.4076C38.1806 70.6339 39.8774 70.747 41.461 70.747C42.8184 70.747 44.289 70.747 45.6464 70.747C46.8907 70.6339 48.1349 70.6339 49.3792 70.5207C50.9629 70.4076 52.4334 70.1814 53.9039 69.9551C53.9039 69.9551 53.9039 69.9551 54.0171 69.9551C53.9039 70.0683 53.9039 70.0683 53.7908 70.1814C52.7728 70.8601 51.7547 71.6519 50.7366 72.3306C47.4562 74.4798 44.0627 76.1766 40.443 77.6471C38.0675 78.6652 35.5789 79.3439 32.9772 79.9095C31.7329 80.1357 30.4886 80.362 29.2443 80.4751C27.8869 80.5882 26.5295 80.5882 25.059 80.4751C22.1179 80.2488 19.29 79.5701 16.6883 78.3258C16.3489 78.2127 16.0096 77.9865 15.7834 77.7602C15.6702 77.7603 15.6702 77.7603 15.5571 77.6471L15.5571 77.6471Z" fill="#0035a0" fill-rule="evenodd" opacity="1" stroke="none"/>
<path d="M53.7908 44.6168C53.7908 46.0874 53.7908 47.671 53.7908 49.1415C53.5646 49.2547 53.2252 49.2547 52.999 49.3678C49.9448 50.0465 46.8907 50.6121 43.8365 51.2908C43.6102 51.2908 43.4971 51.2908 43.2709 51.2908C39.8774 50.6121 36.597 49.9334 33.2034 49.3678C33.0903 49.3678 32.9772 49.3678 32.8641 49.2547C32.8641 47.7841 32.8641 46.3136 32.8641 44.73C39.8774 44.6168 46.7775 44.6168 53.7908 44.6168Z" fill="#ed1c24" fill-rule="evenodd" opacity="1" stroke="none"/>
<path d="M61.5959 43.7119C49.3792 43.825 37.2757 43.825 25.059 43.9381C25.059 43.2594 25.059 42.5807 25.059 41.902C37.3888 41.7889 49.6055 41.6758 61.9353 41.5627C61.9353 41.6758 61.9353 41.7889 61.9353 41.902C61.9353 44.8431 61.9353 47.7841 61.9353 50.7252C61.9353 53.2138 61.9353 55.7024 61.9353 58.1909C61.9353 58.3041 61.9353 58.4172 61.9353 58.5303C61.8222 58.5303 61.709 58.5303 61.4828 58.5303C61.4828 58.4172 61.4828 58.4172 61.4828 58.3041C61.4828 57.3991 61.4828 56.4942 61.4828 55.4761C61.4828 51.6301 61.4828 47.8972 61.3697 44.0513C61.5959 43.9381 61.5959 43.825 61.5959 43.7119Z" fill="#ed1c24" fill-rule="evenodd" opacity="1" stroke="none"/>
<path d="M43.4971 59.0959C40.443 56.4942 37.5019 53.8925 34.4477 51.2908L34.4477 51.2908C35.0133 51.4039 35.4658 51.6301 36.0314 51.7432C38.52 52.4219 41.0085 53.1006 43.384 53.8925C43.4971 53.8925 43.7234 53.8925 43.8365 53.8925C46.6644 52.9875 49.6055 52.1957 52.4334 51.2908C52.5465 51.2908 52.5465 51.2908 52.6596 51.2908C52.5465 51.2908 43.7234 58.8696 43.4971 59.0959Z" fill="#0035a0" fill-rule="evenodd" opacity="1" stroke="none"/>
<path d="M79.6947 39.6397C78.3373 39.6397 77.2061 38.5085 77.2061 37.1511C77.2061 35.7937 78.3373 34.5494 79.6947 34.5494C81.0521 34.5494 82.1833 35.6806 82.1833 37.038C82.2964 38.5085 81.1652 39.6397 79.6947 39.6397Z" fill="#ed1c24" fill-rule="evenodd" opacity="1" stroke="none"/>
<path d="M49.2661 8.75861C49.2661 10.116 48.1349 11.2472 46.6644 11.2472C45.307 11.2472 44.1758 10.116 44.1758 8.75861C44.1758 7.4012 45.307 6.27003 46.6644 6.27003C48.1349 6.27003 49.2661 7.4012 49.2661 8.75861Z" fill="#ed1c24" fill-rule="evenodd" opacity="1" stroke="none"/>
<path d="M9.67501 31.3821C8.3176 31.3821 7.18643 30.2509 7.07331 28.8935C7.07331 27.5361 8.20449 26.2918 9.5619 26.2918C10.9193 26.2918 12.1636 27.423 12.1636 28.8935C12.2767 30.1378 11.0324 31.3821 9.67501 31.3821Z" fill="#ed1c24" fill-rule="evenodd" opacity="1" stroke="none"/>
<path d="M18.3851 72.5568C18.3851 73.9143 17.2539 75.0454 15.8965 75.0454C14.5391 75.0454 13.2948 73.9143 13.2948 72.5568C13.2948 71.1994 14.4259 70.0683 15.7834 70.0683C17.2539 69.9552 18.3851 71.0863 18.3851 72.5568Z" fill="#ed1c24" fill-rule="evenodd" opacity="1" stroke="none"/>
<path d="M63.632 81.8325C62.2746 81.8325 61.1435 80.7013 61.1435 79.3439C61.1435 77.9865 62.2746 76.7422 63.632 76.7422C64.9894 76.7422 66.1206 77.8734 66.1206 79.2308C66.1206 80.7013 64.9894 81.8325 63.632 81.8325Z" fill="#ed1c24" fill-rule="evenodd" opacity="1" stroke="none"/>
</g>
</g>
</svg>
