<?xml version="1.0" encoding="utf-8"?>
<!-- Generator: Adobe Illustrator 24.1.0, SVG Export Plug-In . SVG Version: 6.00 Build 0)  -->
<svg version="1.1" id="Layer_1" xmlns="http://www.w3.org/2000/svg" xmlns:xlink="http://www.w3.org/1999/xlink" x="0px" y="0px"
	 viewBox="0 0 220.1 86" style="enable-background:new 0 0 220.1 86;" xml:space="preserve">
<style type="text/css">
	.st0{fill:#0035A0;}
	.st1{fill:#ED1C24;}
	.st2{enable-background:new    ;}
</style>
<g>
	<path class="st0" d="M52,25.1c0.3-0.1,0.6-0.1,0.8-0.2c1.4-0.3,2.8-0.5,4.3-0.7c1.1-0.1,2.2-0.2,3.3-0.3c1.6-0.1,3.3-0.1,4.9-0.1
		c2.6,0.1,5.2,0.4,7.7,1c2.9,0.7,5.7,1.8,8.2,3.5c1.5,1,2.9,2.2,4,3.7c0.2,0.2,0.3,0.4,0.5,0.7v0.1c-0.1,0-0.1-0.1-0.2-0.1
		C84.4,32,83.2,31.4,82,31c-0.9-0.3-1.8-0.5-2.7-0.4c-1.4,0-2.7,0.4-3.9,0.9h-0.1l0,0c0,0,0.1,0.1,0.1,0.2c0.9,1,1.8,2,2.5,3.1
		c0.5,0.7,0.9,1.5,1.2,2.4c0.2,0.6,0.3,1.3,0.4,1.9c0.1,0.9,0.1,1.8,0.1,2.7c-0.1,1.4-0.3,2.9-0.6,4.2c0,0,0,0.1,0,0.2
		c0-0.1-0.1-0.1-0.1-0.2c-0.7-2.8-1.9-5.2-3.7-7.5c-1.5-1.9-3.2-3.5-5-5c-2.2-1.7-4.5-3.1-6.9-4.3c-3.4-1.7-7-3.1-10.7-4
		C52.3,25.2,52.2,25.1,52,25.1L52,25.1z"/>
	<path class="st0" d="M32.9,37.8c0-0.2,0-0.4,0.1-0.6c0.2-1.3,0.4-2.6,0.7-3.9c0.6-2.7,1.4-5.4,2.3-7.9c0.9-2.4,2-4.8,3.4-7
		c1.5-2.4,3.3-4.5,5.5-6.3c1.6-1.3,3.4-2.4,5.4-3.2c0.4-0.1,0.7-0.2,1.1-0.4l0,0c-0.1,0-0.1,0.1-0.2,0.1c-1,0.8-2,1.7-2.8,2.8
		c-0.9,1.2-1.5,2.5-1.7,4c-0.1,0.7-0.1,1.5-0.1,2.2c0,0.1,0,0.2,0,0.2v0.1c0.1,0,0.2-0.1,0.2-0.1c1.2-0.5,2.4-1,3.7-1.3
		c0.7-0.2,1.5-0.3,2.3-0.3c0.6,0,1.1,0.1,1.7,0.2c2.2,0.4,4.1,1.2,6,2.3c0.3,0.2,0.6,0.4,0.9,0.6c0.1,0,0.1,0.1,0.2,0.1
		c-0.1,0-0.1,0-0.2,0c-0.8-0.1-1.5-0.1-2.3-0.1c-2.1,0.1-4,0.4-6,1.1c-2.4,0.8-4.5,1.9-6.6,3.3c-2.2,1.4-4.2,3.1-6,4.9
		c-2.7,2.6-5,5.4-7.2,8.4C33.2,37.3,33.1,37.6,32.9,37.8L32.9,37.8z"/>
	<path class="st0" d="M36.6,59.9c-0.1,0-0.1-0.1-0.2-0.1c-1.8-1.1-3.6-2.4-5.2-3.7c-2.6-2.1-5.1-4.4-7.3-7c-1.4-1.7-2.7-3.4-3.7-5.3
		c-1.2-2.2-2-4.4-2.5-6.8c-0.3-1.4-0.4-2.9-0.3-4.3c0-0.5,0.1-1,0.1-1.5c0,0,0-0.1,0.1-0.1c0,0.1,0,0.1,0.1,0.2
		c0.3,1.1,0.7,2.2,1.1,3.2c0.8,1.8,2.1,3.1,3.8,4c0.5,0.3,1,0.5,1.5,0.6c0.1,0,0.2,0,0.2,0.1c0-0.1,0-0.1,0-0.2c0-0.7,0-1.5,0.1-2.2
		c0.1-1.2,0.3-2.5,0.7-3.7c0.3-0.8,0.7-1.5,1.2-2.1c1.1-1.5,2.4-2.7,3.9-3.8c0.4-0.3,0.9-0.6,1.4-0.9c0.1,0,0.1-0.1,0.2-0.1
		c0,0.1-0.1,0.1-0.1,0.2c-1.1,2-1.9,4.1-2.3,6.4c-0.3,1.6-0.4,3.3-0.4,4.9c0.1,1.9,0.3,3.8,0.7,5.6c0.7,3.6,1.9,7,3.5,10.3
		C34.2,55.8,35.3,57.9,36.6,59.9C36.6,59.8,36.6,59.9,36.6,59.9L36.6,59.9z"/>
	<path class="st0" d="M59.1,72C59.1,72,59.2,72,59.1,72c2.4-1.4,4.4-3.1,6-5.2c1.5-1.9,2.7-4,3.6-6.2c1.1-2.5,1.8-5,2.3-7.7
		c0.3-1.4,0.5-2.7,0.7-4.1c0.2-1.2,0.3-2.5,0.4-3.7c0.1-1.3,0.1-2.6,0.1-3.9c0-0.2,0-0.4,0-0.7c0,0.1,0.1,0.2,0.1,0.2
		c1,1.9,1.9,3.9,2.6,5.9c0.9,2.5,1.7,5,2.3,7.6c0.3,1.4,0.5,2.8,0.7,4.2s0.2,2.8,0.2,4.2c-0.1,3.1-0.7,6.1-2,9
		C75.5,72.8,74.9,74,74,75c0,0,0,0-0.1,0.1c0-0.1,0-0.1,0.1-0.2c0.3-1.1,0.5-2.2,0.7-3.3c0.3-2.3-0.4-4.4-1.8-6.3
		c-0.2-0.2-0.4-0.5-0.6-0.7c-0.1,0.1-0.1,0.1-0.1,0.2c-0.6,1.1-1.3,2.1-2.1,3c-0.4,0.4-0.8,0.9-1.2,1.3c-0.7,0.7-1.6,1.2-2.5,1.6
		c-1.4,0.6-2.8,0.9-4.3,1.2c-0.8,0.1-1.7,0.2-2.6,0.2C59.3,72,59.2,72,59.1,72L59.1,72z"/>
	<path class="st0" d="M27,72.7c0.4,0,0.8,0.1,1.2,0.1c1.4,0.1,2.8,0.1,4.2-0.2c1-0.2,1.9-0.7,2.7-1.3c0.7-0.5,1.2-1,1.8-1.6
		c0-0.1,0.1-0.1,0.2-0.2c-0.1,0-0.2-0.1-0.2-0.1c-1.2-0.5-2.4-1.1-3.5-1.8c-0.4-0.2-0.7-0.5-1.1-0.8c-0.8-0.6-1.4-1.3-1.9-2.2
		c-0.9-1.4-1.5-3-2-4.6c-0.2-0.8-0.4-1.6-0.6-2.4c0,0,0,0,0-0.1c0,0.1,0.1,0.1,0.1,0.1c1.8,2.3,4,4.1,6.6,5.4
		c2.1,1.1,4.4,1.9,6.7,2.5c1.4,0.3,2.9,0.6,4.4,0.8c1.4,0.2,2.9,0.3,4.3,0.3c1.2,0,2.5,0,3.7,0c1.1-0.1,2.2-0.1,3.3-0.2
		c1.4-0.1,2.7-0.3,4-0.5c0,0,0,0,0.1,0c-0.1,0.1-0.1,0.1-0.2,0.2c-0.9,0.6-1.8,1.3-2.7,1.9c-2.9,1.9-5.9,3.4-9.1,4.7
		c-2.1,0.9-4.3,1.5-6.6,2c-1.1,0.2-2.2,0.4-3.3,0.5c-1.2,0.1-2.4,0.1-3.7,0c-2.6-0.2-5.1-0.8-7.4-1.9c-0.3-0.1-0.6-0.3-0.8-0.5
		C27.1,72.8,27.1,72.8,27,72.7L27,72.7z"/>
	<path class="st1" d="M60.8,43.5c0,1.3,0,2.7,0,4c-0.2,0.1-0.5,0.1-0.7,0.2c-2.7,0.6-5.4,1.1-8.1,1.7c-0.2,0-0.3,0-0.5,0
		c-3-0.6-5.9-1.2-8.9-1.7c-0.1,0-0.2,0-0.3-0.1c0-1.3,0-2.6,0-4C48.5,43.5,54.6,43.5,60.8,43.5z"/>
	<path class="st1" d="M67.7,42.7c-10.8,0.1-21.5,0.1-32.3,0.2c0-0.6,0-1.2,0-1.8C46.3,41,57.1,40.9,68,40.8c0,0.1,0,0.2,0,0.3
		c0,2.6,0,5.2,0,7.8c0,2.2,0,4.4,0,6.6c0,0.1,0,0.2,0,0.3c-0.1,0-0.2,0-0.4,0c0-0.1,0-0.1,0-0.2c0-0.8,0-1.6,0-2.5
		c0-3.4,0-6.7-0.1-10.1C67.7,42.9,67.7,42.8,67.7,42.7z"/>
	<path class="st0" d="M51.7,56.3c-2.7-2.3-5.3-4.6-8-6.9l0,0c0.5,0.1,0.9,0.3,1.4,0.4c2.2,0.6,4.4,1.2,6.5,1.9c0.1,0,0.3,0,0.4,0
		c2.5-0.8,5.1-1.5,7.6-2.3c0.1,0,0.1,0,0.2,0C59.7,49.4,51.9,56.1,51.7,56.3z"/>
	<path class="st1" d="M83.7,39.1c-1.2,0-2.2-1-2.2-2.2s1-2.3,2.2-2.3s2.2,1,2.2,2.2C86,38.1,85,39.1,83.7,39.1z"/>
	<path class="st1" d="M56.8,11.8c0,1.2-1,2.2-2.3,2.2c-1.2,0-2.2-1-2.2-2.2s1-2.2,2.2-2.2C55.8,9.6,56.8,10.6,56.8,11.8z"/>
	<path class="st1" d="M21.8,31.8c-1.2,0-2.2-1-2.3-2.2c0-1.2,1-2.3,2.2-2.3s2.3,1,2.3,2.3C24.1,30.7,23,31.8,21.8,31.8z"/>
	<path class="st1" d="M29.5,68.2c0,1.2-1,2.2-2.2,2.2s-2.3-1-2.3-2.2s1-2.2,2.2-2.2C28.5,65.9,29.5,66.9,29.5,68.2z"/>
	<path class="st1" d="M69.5,76.4c-1.2,0-2.2-1-2.2-2.2s1-2.3,2.2-2.3s2.2,1,2.2,2.2C71.7,75.4,70.7,76.4,69.5,76.4z"/>
</g>
<g class="st2">
	<path class="st0" d="M96,28.9c0-7.1,5.5-9.7,11.8-9.7c5.3,0,10.9,1.5,10.9,5.3c0,1-0.4,2.1-1.2,3.5c-1-3.6-5.8-4.7-9.7-4.7
		c-3.8,0-6.6,1.5-6.6,6.1V38c0,4.7,2.7,6.2,6.6,6.2s6.6-0.8,6.6-5.8v-1.3h-4.5c-2.5,0-3.3-2-3.3-4.4c0,0,1.1,0.5,3.9,0.5h9.1V39
		c0,7-5.5,9.3-11.8,9.3S96,45.7,96,38.6V28.9z"/>
	<path class="st0" d="M123.9,41.3V34c0-4.3,3.1-6.9,8.7-6.9s8.3,2.6,8.3,6.5c0,3.3-2,6.4-8.2,6.4c-1.3,0-2.5-0.2-3.7-0.7v1.4
		c0,2.4,1.4,3.6,4.4,3.6c3.9,0,6.5-1.6,6.6-4c0.8,1.2,1.2,2.2,1.2,3.2c0,2.8-3.3,4.7-7.8,4.7C127.4,48.2,123.9,45.6,123.9,41.3z
		 M129,35.7c0.4,0.1,1.8,0.4,2.9,0.4c2.8,0,3.8-0.9,3.8-2.5c0-1.6-0.9-2.8-3.3-2.8c-2.7,0-3.4,1.4-3.4,3.8V35.7z"/>
	<path class="st0" d="M157.7,34.1c0-2.1-1-3.3-3.8-3.3c-2,0-3.7,0.5-3.7,0.5V48c0,0-5.1,0-5.1-2.5V27.1c0,0,1.5,0.8,3.5,0.8
		c1.9,0,3.7-0.8,5.8-0.8c4,0,8.3,1.4,8.3,6.5V48c0,0-5.1-0.1-5.1-2.5V34.1z"/>
	<path class="st0" d="M167.9,19.7h9.1c6,0,10.2,1.8,10.2,7.1v1c0,2.4-1.3,4.9-3.1,5.7c2,0.9,3.5,3.4,3.5,5.9v1
		c0,5.1-4.3,7.3-10.6,7.3h-4.8c0,0-4.2,0-4.2-2.5V19.7z M173.1,23.6v8h4.1c3.5,0,4.7-1.5,4.7-4.4c0-2.9-1.6-3.6-5-3.6H173.1z
		 M173.1,35.5v8.4h3.8c3.8,0,5.4-1.1,5.4-4c0-2.9-1.5-4.4-5.1-4.4H173.1z"/>
	<path class="st0" d="M192.3,19.3c0,0,5.3,0,5.3,2.5v26.3c0,0-5.3,0-5.3-2.5V19.3z"/>
</g>
<g class="st2">
	<path class="st1" d="M97.5,62.2c0-4,3.1-5.4,6.6-5.4c2.9,0,6.1,0.8,6.1,3c0,0.5-0.2,1.2-0.7,1.9c-0.5-2-3.2-2.6-5.4-2.6
		c-2.1,0-3.6,0.8-3.6,3.4v4.8c0,2.6,1.5,3.4,3.6,3.4c2.1,0,3.6-0.4,3.6-3.2v-0.7h-2.5c-1.4,0-1.8-1.1-1.8-2.4c0,0,0.6,0.3,2.2,0.3
		h5.1v3.2c0,3.9-3.1,5.1-6.6,5.1s-6.6-1.4-6.6-5.4V62.2z"/>
	<path class="st1" d="M123.5,69.1c0,2.4-1.7,3.8-5.3,3.8c-3.6,0-5.3-1.4-5.3-3.8V65c0-2.4,1.7-3.8,5.3-3.8c3.6,0,5.3,1.4,5.3,3.8
		V69.1z M120.7,65.3c0-1.3-0.4-2.1-2.4-2.1c-2,0-2.4,0.8-2.4,2.1v3.4c0,1.3,0.4,2.1,2.4,2.1c2,0,2.4-0.8,2.4-2.1V65.3z"/>
	<path class="st1" d="M125.9,71.4V61.2c0.7,0.3,1.2,0.4,1.7,0.4c1,0,1.9-0.5,3.2-0.5c1.5,0,2.9,0.6,2.9,2c0,1.1-0.8,1.9-1,2.1
		c0-1.4-1.1-2-2.4-2c-0.7,0-1.4,0.2-1.6,0.2v9.2C128.7,72.8,125.9,72.8,125.9,71.4z"/>
	<path class="st1" d="M144.9,69.1c0,2.4-1.7,3.8-5.3,3.8c-3.6,0-5.3-1.4-5.3-3.8V65c0-2.4,1.7-3.8,5.3-3.8c3.6,0,5.3,1.4,5.3,3.8
		V69.1z M142,65.3c0-1.3-0.4-2.1-2.4-2.1c-2,0-2.4,0.8-2.4,2.1v3.4c0,1.3,0.4,2.1,2.4,2.1c2,0,2.4-0.8,2.4-2.1V65.3z"/>
	<path class="st1" d="M154.2,65.1c0-1.2-0.5-1.8-2.1-1.8c-1.1,0-2.1,0.3-2.1,0.3v9.2c0,0-2.8,0-2.8-1.4V61.2c0,0,0.8,0.5,2,0.5
		c1.1,0,2.1-0.5,3.2-0.5c2.2,0,4.6,0.8,4.6,3.6v8c0,0-2.8,0-2.8-1.4V65.1z"/>
	<path class="st1" d="M159.7,59.3c0.6,0,2.8,0,2.8,1.9v0.8h4.4c0,0,0,2.1-1.6,2.1h-2.8v4.4c0,1.5,0.4,2.3,2.1,2.3
		c1.3,0,2.6-0.5,2.6-2.3c0.6,0.7,0.9,1.3,0.9,1.9c0,1.3-1.3,2.5-3.9,2.5c-2.9,0-4.5-1.4-4.5-3.8V59.3z"/>
	<path class="st1" d="M175.7,64.7c0-0.8-0.4-1.5-2.1-1.5c-1.8,0-3.5,0.6-3.5,2.5c-0.6-0.8-0.8-1.5-0.8-2.1c0-1.9,2.5-2.5,4.3-2.5
		c3.2,0,4.9,1.4,4.9,3.7v8c-0.6-0.3-1.1-0.3-1.7-0.3c-1.1,0-2.2,0.4-3.4,0.4c-2.2,0-4.4-0.8-4.4-3.4C169,65.4,174.8,66.5,175.7,64.7
		z M175.8,67c-0.5,1.2-4,0.5-4,2.5c0,1,0.7,1.5,2,1.5c1.2,0,2-0.4,2-0.4V67z"/>
	<path class="st1" d="M180.9,56c0.2,0,2.8,0,2.8,1.4v11.3c0,1.2,0,3.2,1.5,3.2c-0.6,0.8-1.3,0.9-1.8,0.9c-1.8,0-2.6-1.6-2.6-3.4V56z
		"/>
	<path class="st1" d="M196.8,69.1c0,2.4-1.7,3.8-5.3,3.8s-5.3-1.4-5.3-3.8V65c0-2.4,1.7-3.8,5.3-3.8s5.3,1.4,5.3,3.8V69.1z
		 M193.9,65.3c0-1.3-0.4-2.1-2.4-2.1s-2.4,0.8-2.4,2.1v3.4c0,1.3,0.4,2.1,2.4,2.1s2.4-0.8,2.4-2.1V65.3z"/>
</g>
<text transform="matrix(1 0 0 1 93.6342 -49.0046)" class="st0" style="font-family:'DiavloBold-Regular'; font-size:39.2301px;">GenBI</text>
<text transform="matrix(1 0 0 1 96.1767 -24.1296)" class="st1" style="font-family:'DiavloBold-Regular'; font-size:21.7891px;">Gorontalo</text>
</svg>
